%TF.GenerationSoftware,KiCad,Pcbnew,(5.99.0-10155-gdd944794ea)*%
%TF.CreationDate,2021-04-17T22:56:49+01:00*%
%TF.ProjectId,minor-cap,6d696e6f-722d-4636-9170-2e6b69636164,rev?*%
%TF.SameCoordinates,Original*%
%TF.FileFunction,Soldermask,Top*%
%TF.FilePolarity,Negative*%
%FSLAX46Y46*%
G04 Gerber Fmt 4.6, Leading zero omitted, Abs format (unit mm)*
G04 Created by KiCad (PCBNEW (5.99.0-10155-gdd944794ea)) date 2021-04-17 22:56:49*
%MOMM*%
%LPD*%
G01*
G04 APERTURE LIST*
G04 Aperture macros list*
%AMRoundRect*
0 Rectangle with rounded corners*
0 $1 Rounding radius*
0 $2 $3 $4 $5 $6 $7 $8 $9 X,Y pos of 4 corners*
0 Add a 4 corners polygon primitive as box body*
4,1,4,$2,$3,$4,$5,$6,$7,$8,$9,$2,$3,0*
0 Add four circle primitives for the rounded corners*
1,1,$1+$1,$2,$3*
1,1,$1+$1,$4,$5*
1,1,$1+$1,$6,$7*
1,1,$1+$1,$8,$9*
0 Add four rect primitives between the rounded corners*
20,1,$1+$1,$2,$3,$4,$5,0*
20,1,$1+$1,$4,$5,$6,$7,0*
20,1,$1+$1,$6,$7,$8,$9,0*
20,1,$1+$1,$8,$9,$2,$3,0*%
G04 Aperture macros list end*
%ADD10O,1.200000X2.000000*%
%ADD11R,0.600000X0.450000*%
%ADD12RoundRect,0.200000X-0.200000X-0.275000X0.200000X-0.275000X0.200000X0.275000X-0.200000X0.275000X0*%
%ADD13RoundRect,0.200000X0.200000X0.275000X-0.200000X0.275000X-0.200000X-0.275000X0.200000X-0.275000X0*%
%ADD14RoundRect,0.225000X-0.225000X-0.250000X0.225000X-0.250000X0.225000X0.250000X-0.225000X0.250000X0*%
%ADD15R,1.200000X4.000000*%
%ADD16RoundRect,0.150000X0.512500X0.150000X-0.512500X0.150000X-0.512500X-0.150000X0.512500X-0.150000X0*%
%ADD17RoundRect,0.150000X-0.825000X-0.150000X0.825000X-0.150000X0.825000X0.150000X-0.825000X0.150000X0*%
%ADD18R,3.100000X3.100000*%
%ADD19RoundRect,0.062500X-0.062500X-0.375000X0.062500X-0.375000X0.062500X0.375000X-0.062500X0.375000X0*%
%ADD20RoundRect,0.062500X-0.375000X-0.062500X0.375000X-0.062500X0.375000X0.062500X-0.375000X0.062500X0*%
%ADD21C,0.900000*%
%ADD22R,2.500000X1.250000*%
%ADD23R,1.270000X5.080000*%
%ADD24C,17.800000*%
G04 APERTURE END LIST*
D10*
%TO.C,J1*%
X179270000Y-87450000D03*
X176730000Y-87250000D03*
X174190000Y-87450000D03*
X171650000Y-87250000D03*
X169110000Y-87450000D03*
X166570000Y-87250000D03*
X164030000Y-87450000D03*
X161490000Y-87250000D03*
X158950000Y-87450000D03*
X156410000Y-87250000D03*
X153870000Y-87450000D03*
X151330000Y-87250000D03*
X148790000Y-87450000D03*
X146250000Y-87250000D03*
X143710000Y-87450000D03*
X141170000Y-87250000D03*
X138630000Y-87450000D03*
%TD*%
D11*
%TO.C,D1*%
X137800000Y-101850000D03*
X139900000Y-101850000D03*
%TD*%
D12*
%TO.C,R12*%
X180425000Y-99930000D03*
X178775000Y-99930000D03*
%TD*%
%TO.C,R11*%
X177725000Y-105580000D03*
X176075000Y-105580000D03*
%TD*%
D13*
%TO.C,R10*%
X159875000Y-89600000D03*
X161525000Y-89600000D03*
%TD*%
%TO.C,R9*%
X162875000Y-89600000D03*
X164525000Y-89600000D03*
%TD*%
D12*
%TO.C,R8*%
X180425000Y-102530000D03*
X178775000Y-102530000D03*
%TD*%
%TO.C,R7*%
X181025000Y-105530000D03*
X179375000Y-105530000D03*
%TD*%
%TO.C,R6*%
X171025000Y-105730000D03*
X169375000Y-105730000D03*
%TD*%
%TO.C,R5*%
X174225000Y-105730000D03*
X172575000Y-105730000D03*
%TD*%
%TO.C,R4*%
X178975000Y-94860000D03*
X177325000Y-94860000D03*
%TD*%
%TO.C,R3*%
X168505000Y-95370000D03*
X166855000Y-95370000D03*
%TD*%
D13*
%TO.C,R2*%
X166775000Y-103330000D03*
X168425000Y-103330000D03*
%TD*%
D12*
%TO.C,R1*%
X168475000Y-100080000D03*
X166825000Y-100080000D03*
%TD*%
D14*
%TO.C,C3*%
X161425000Y-93450000D03*
X159875000Y-93450000D03*
%TD*%
%TO.C,C2*%
X178925000Y-93330000D03*
X177375000Y-93330000D03*
%TD*%
%TO.C,C1*%
X168405000Y-93870000D03*
X166855000Y-93870000D03*
%TD*%
D15*
%TO.C,BZ1*%
X154050000Y-99350000D03*
X142850000Y-99350000D03*
%TD*%
D16*
%TO.C,U6*%
X137762500Y-98550000D03*
X137762500Y-96650000D03*
X140037500Y-96650000D03*
X140037500Y-97600000D03*
X140037500Y-98550000D03*
%TD*%
D17*
%TO.C,U4*%
X162925000Y-95840000D03*
X162925000Y-97110000D03*
X162925000Y-98380000D03*
X162925000Y-99650000D03*
X162925000Y-100920000D03*
X162925000Y-102190000D03*
X162925000Y-103460000D03*
X157975000Y-103460000D03*
X157975000Y-102190000D03*
X157975000Y-100920000D03*
X157975000Y-99650000D03*
X157975000Y-98380000D03*
X157975000Y-97110000D03*
X157975000Y-95840000D03*
%TD*%
D18*
%TO.C,U1*%
X174150000Y-99330000D03*
D19*
X172400000Y-96892500D03*
X172900000Y-96892500D03*
X173400000Y-96892500D03*
X173900000Y-96892500D03*
X174400000Y-96892500D03*
X174900000Y-96892500D03*
X175400000Y-96892500D03*
X175900000Y-96892500D03*
D20*
X176587500Y-97580000D03*
X176587500Y-98080000D03*
X176587500Y-98580000D03*
X176587500Y-99080000D03*
X176587500Y-99580000D03*
X176587500Y-100080000D03*
X176587500Y-100580000D03*
X176587500Y-101080000D03*
D19*
X175900000Y-101767500D03*
X175400000Y-101767500D03*
X174900000Y-101767500D03*
X174400000Y-101767500D03*
X173900000Y-101767500D03*
X173400000Y-101767500D03*
X172900000Y-101767500D03*
X172400000Y-101767500D03*
D20*
X171712500Y-101080000D03*
X171712500Y-100580000D03*
X171712500Y-100080000D03*
X171712500Y-99580000D03*
X171712500Y-99080000D03*
X171712500Y-98580000D03*
X171712500Y-98080000D03*
X171712500Y-97580000D03*
%TD*%
D21*
%TO.C,SW1*%
X107350000Y-106000000D03*
X107350000Y-99200000D03*
D22*
X110100000Y-105100000D03*
X110100000Y-102600000D03*
X110100000Y-100100000D03*
%TD*%
D23*
%TO.C,BT1*%
X134635000Y-96750000D03*
X112665000Y-96750000D03*
D24*
X123650000Y-96750000D03*
%TD*%
M02*
