%TF.GenerationSoftware,KiCad,Pcbnew,(5.99.0-10155-gdd944794ea)*%
%TF.CreationDate,2021-04-17T22:56:49+01:00*%
%TF.ProjectId,minor-cap,6d696e6f-722d-4636-9170-2e6b69636164,rev?*%
%TF.SameCoordinates,Original*%
%TF.FileFunction,Soldermask,Bot*%
%TF.FilePolarity,Negative*%
%FSLAX46Y46*%
G04 Gerber Fmt 4.6, Leading zero omitted, Abs format (unit mm)*
G04 Created by KiCad (PCBNEW (5.99.0-10155-gdd944794ea)) date 2021-04-17 22:56:49*
%MOMM*%
%LPD*%
G01*
G04 APERTURE LIST*
%ADD10R,1.000000X1.000000*%
%ADD11O,1.200000X2.000000*%
%ADD12C,0.900000*%
G04 APERTURE END LIST*
D10*
%TO.C,U2*%
X166450000Y-109320000D03*
X114450000Y-109320000D03*
X154450000Y-109320000D03*
X141450000Y-109320000D03*
X178950000Y-109320000D03*
X127450000Y-109320000D03*
X160450000Y-109320000D03*
X120950000Y-109320000D03*
X187950000Y-109320000D03*
X133950000Y-109320000D03*
X148450000Y-109320000D03*
X107950000Y-109320000D03*
X172450000Y-109320000D03*
X186450000Y-109320000D03*
X177450000Y-109320000D03*
X170950000Y-109320000D03*
X164950000Y-109320000D03*
X158950000Y-109320000D03*
X146950000Y-109320000D03*
X152950000Y-109320000D03*
X139950000Y-109320000D03*
X132450000Y-109320000D03*
X119450000Y-109320000D03*
X125950000Y-109320000D03*
X106450000Y-109320000D03*
X112950000Y-109320000D03*
%TD*%
D11*
%TO.C,J1*%
X179270000Y-87450000D03*
X176730000Y-87250000D03*
X174190000Y-87450000D03*
X171650000Y-87250000D03*
X169110000Y-87450000D03*
X166570000Y-87250000D03*
X164030000Y-87450000D03*
X161490000Y-87250000D03*
X158950000Y-87450000D03*
X156410000Y-87250000D03*
X153870000Y-87450000D03*
X151330000Y-87250000D03*
X148790000Y-87450000D03*
X146250000Y-87250000D03*
X143710000Y-87450000D03*
X141170000Y-87250000D03*
X138630000Y-87450000D03*
%TD*%
D10*
%TO.C,U3*%
X182450000Y-93600000D03*
X182450000Y-105600000D03*
X182450000Y-99600000D03*
X182450000Y-104100000D03*
X182450000Y-98100000D03*
X182450000Y-92100000D03*
%TD*%
D12*
%TO.C,SW1*%
X107350000Y-106000000D03*
X107350000Y-99200000D03*
%TD*%
M02*
