%TF.GenerationSoftware,KiCad,Pcbnew,(5.99.0-10155-gdd944794ea)*%
%TF.CreationDate,2021-04-17T22:56:48+01:00*%
%TF.ProjectId,minor-cap,6d696e6f-722d-4636-9170-2e6b69636164,rev?*%
%TF.SameCoordinates,Original*%
%TF.FileFunction,Legend,Top*%
%TF.FilePolarity,Positive*%
%FSLAX46Y46*%
G04 Gerber Fmt 4.6, Leading zero omitted, Abs format (unit mm)*
G04 Created by KiCad (PCBNEW (5.99.0-10155-gdd944794ea)) date 2021-04-17 22:56:48*
%MOMM*%
%LPD*%
G01*
G04 APERTURE LIST*
%ADD10C,0.150000*%
%ADD11C,0.120000*%
%ADD12C,2.060000*%
G04 APERTURE END LIST*
D10*
X111805551Y-90600000D02*
G75*
G03*
X111805551Y-90600000I-3605551J0D01*
G01*
X176750000Y-87200000D02*
X179250000Y-87400000D01*
X174150000Y-87400000D02*
X176750000Y-87200000D01*
X171650000Y-87200000D02*
X174150000Y-87400000D01*
X169150000Y-87400000D02*
X171650000Y-87200000D01*
X166550000Y-87200000D02*
X169150000Y-87400000D01*
X164050000Y-87500000D02*
X166550000Y-87200000D01*
X161450000Y-87200000D02*
X164050000Y-87500000D01*
X158950000Y-87400000D02*
X161450000Y-87200000D01*
X156450000Y-87200000D02*
X158950000Y-87400000D01*
X153850000Y-87400000D02*
X156450000Y-87200000D01*
X151350000Y-87200000D02*
X153850000Y-87400000D01*
X148750000Y-87400000D02*
X151350000Y-87200000D01*
X146250000Y-87200000D02*
X148750000Y-87400000D01*
X143750000Y-87500000D02*
X146250000Y-87200000D01*
X141150000Y-87200000D02*
X143750000Y-87500000D01*
X138650000Y-87500000D02*
X141150000Y-87200000D01*
%TO.C,D1*%
X138483333Y-103816666D02*
X138483333Y-103116666D01*
X138650000Y-103116666D01*
X138750000Y-103150000D01*
X138816666Y-103216666D01*
X138850000Y-103283333D01*
X138883333Y-103416666D01*
X138883333Y-103516666D01*
X138850000Y-103650000D01*
X138816666Y-103716666D01*
X138750000Y-103783333D01*
X138650000Y-103816666D01*
X138483333Y-103816666D01*
X139550000Y-103816666D02*
X139150000Y-103816666D01*
X139350000Y-103816666D02*
X139350000Y-103116666D01*
X139283333Y-103216666D01*
X139216666Y-103283333D01*
X139150000Y-103316666D01*
%TO.C,R12*%
X179150000Y-98816666D02*
X178916666Y-98483333D01*
X178750000Y-98816666D02*
X178750000Y-98116666D01*
X179016666Y-98116666D01*
X179083333Y-98150000D01*
X179116666Y-98183333D01*
X179150000Y-98250000D01*
X179150000Y-98350000D01*
X179116666Y-98416666D01*
X179083333Y-98450000D01*
X179016666Y-98483333D01*
X178750000Y-98483333D01*
X179816666Y-98816666D02*
X179416666Y-98816666D01*
X179616666Y-98816666D02*
X179616666Y-98116666D01*
X179550000Y-98216666D01*
X179483333Y-98283333D01*
X179416666Y-98316666D01*
X180083333Y-98183333D02*
X180116666Y-98150000D01*
X180183333Y-98116666D01*
X180350000Y-98116666D01*
X180416666Y-98150000D01*
X180450000Y-98183333D01*
X180483333Y-98250000D01*
X180483333Y-98316666D01*
X180450000Y-98416666D01*
X180050000Y-98816666D01*
X180483333Y-98816666D01*
%TO.C,R11*%
X176450000Y-104466666D02*
X176216666Y-104133333D01*
X176050000Y-104466666D02*
X176050000Y-103766666D01*
X176316666Y-103766666D01*
X176383333Y-103800000D01*
X176416666Y-103833333D01*
X176450000Y-103900000D01*
X176450000Y-104000000D01*
X176416666Y-104066666D01*
X176383333Y-104100000D01*
X176316666Y-104133333D01*
X176050000Y-104133333D01*
X177116666Y-104466666D02*
X176716666Y-104466666D01*
X176916666Y-104466666D02*
X176916666Y-103766666D01*
X176850000Y-103866666D01*
X176783333Y-103933333D01*
X176716666Y-103966666D01*
X177783333Y-104466666D02*
X177383333Y-104466666D01*
X177583333Y-104466666D02*
X177583333Y-103766666D01*
X177516666Y-103866666D01*
X177450000Y-103933333D01*
X177383333Y-103966666D01*
%TO.C,R10*%
X160250000Y-91346666D02*
X160016666Y-91013333D01*
X159850000Y-91346666D02*
X159850000Y-90646666D01*
X160116666Y-90646666D01*
X160183333Y-90680000D01*
X160216666Y-90713333D01*
X160250000Y-90780000D01*
X160250000Y-90880000D01*
X160216666Y-90946666D01*
X160183333Y-90980000D01*
X160116666Y-91013333D01*
X159850000Y-91013333D01*
X160916666Y-91346666D02*
X160516666Y-91346666D01*
X160716666Y-91346666D02*
X160716666Y-90646666D01*
X160650000Y-90746666D01*
X160583333Y-90813333D01*
X160516666Y-90846666D01*
X161350000Y-90646666D02*
X161416666Y-90646666D01*
X161483333Y-90680000D01*
X161516666Y-90713333D01*
X161550000Y-90780000D01*
X161583333Y-90913333D01*
X161583333Y-91080000D01*
X161550000Y-91213333D01*
X161516666Y-91280000D01*
X161483333Y-91313333D01*
X161416666Y-91346666D01*
X161350000Y-91346666D01*
X161283333Y-91313333D01*
X161250000Y-91280000D01*
X161216666Y-91213333D01*
X161183333Y-91080000D01*
X161183333Y-90913333D01*
X161216666Y-90780000D01*
X161250000Y-90713333D01*
X161283333Y-90680000D01*
X161350000Y-90646666D01*
%TO.C,R9*%
X163583333Y-91346666D02*
X163350000Y-91013333D01*
X163183333Y-91346666D02*
X163183333Y-90646666D01*
X163450000Y-90646666D01*
X163516666Y-90680000D01*
X163550000Y-90713333D01*
X163583333Y-90780000D01*
X163583333Y-90880000D01*
X163550000Y-90946666D01*
X163516666Y-90980000D01*
X163450000Y-91013333D01*
X163183333Y-91013333D01*
X163916666Y-91346666D02*
X164050000Y-91346666D01*
X164116666Y-91313333D01*
X164150000Y-91280000D01*
X164216666Y-91180000D01*
X164250000Y-91046666D01*
X164250000Y-90780000D01*
X164216666Y-90713333D01*
X164183333Y-90680000D01*
X164116666Y-90646666D01*
X163983333Y-90646666D01*
X163916666Y-90680000D01*
X163883333Y-90713333D01*
X163850000Y-90780000D01*
X163850000Y-90946666D01*
X163883333Y-91013333D01*
X163916666Y-91046666D01*
X163983333Y-91080000D01*
X164116666Y-91080000D01*
X164183333Y-91046666D01*
X164216666Y-91013333D01*
X164250000Y-90946666D01*
%TO.C,R8*%
X179483333Y-101416666D02*
X179250000Y-101083333D01*
X179083333Y-101416666D02*
X179083333Y-100716666D01*
X179350000Y-100716666D01*
X179416666Y-100750000D01*
X179450000Y-100783333D01*
X179483333Y-100850000D01*
X179483333Y-100950000D01*
X179450000Y-101016666D01*
X179416666Y-101050000D01*
X179350000Y-101083333D01*
X179083333Y-101083333D01*
X179883333Y-101016666D02*
X179816666Y-100983333D01*
X179783333Y-100950000D01*
X179750000Y-100883333D01*
X179750000Y-100850000D01*
X179783333Y-100783333D01*
X179816666Y-100750000D01*
X179883333Y-100716666D01*
X180016666Y-100716666D01*
X180083333Y-100750000D01*
X180116666Y-100783333D01*
X180150000Y-100850000D01*
X180150000Y-100883333D01*
X180116666Y-100950000D01*
X180083333Y-100983333D01*
X180016666Y-101016666D01*
X179883333Y-101016666D01*
X179816666Y-101050000D01*
X179783333Y-101083333D01*
X179750000Y-101150000D01*
X179750000Y-101283333D01*
X179783333Y-101350000D01*
X179816666Y-101383333D01*
X179883333Y-101416666D01*
X180016666Y-101416666D01*
X180083333Y-101383333D01*
X180116666Y-101350000D01*
X180150000Y-101283333D01*
X180150000Y-101150000D01*
X180116666Y-101083333D01*
X180083333Y-101050000D01*
X180016666Y-101016666D01*
%TO.C,R7*%
X180083333Y-104416666D02*
X179850000Y-104083333D01*
X179683333Y-104416666D02*
X179683333Y-103716666D01*
X179950000Y-103716666D01*
X180016666Y-103750000D01*
X180050000Y-103783333D01*
X180083333Y-103850000D01*
X180083333Y-103950000D01*
X180050000Y-104016666D01*
X180016666Y-104050000D01*
X179950000Y-104083333D01*
X179683333Y-104083333D01*
X180316666Y-103716666D02*
X180783333Y-103716666D01*
X180483333Y-104416666D01*
%TO.C,R6*%
X170083333Y-104616666D02*
X169850000Y-104283333D01*
X169683333Y-104616666D02*
X169683333Y-103916666D01*
X169950000Y-103916666D01*
X170016666Y-103950000D01*
X170050000Y-103983333D01*
X170083333Y-104050000D01*
X170083333Y-104150000D01*
X170050000Y-104216666D01*
X170016666Y-104250000D01*
X169950000Y-104283333D01*
X169683333Y-104283333D01*
X170683333Y-103916666D02*
X170550000Y-103916666D01*
X170483333Y-103950000D01*
X170450000Y-103983333D01*
X170383333Y-104083333D01*
X170350000Y-104216666D01*
X170350000Y-104483333D01*
X170383333Y-104550000D01*
X170416666Y-104583333D01*
X170483333Y-104616666D01*
X170616666Y-104616666D01*
X170683333Y-104583333D01*
X170716666Y-104550000D01*
X170750000Y-104483333D01*
X170750000Y-104316666D01*
X170716666Y-104250000D01*
X170683333Y-104216666D01*
X170616666Y-104183333D01*
X170483333Y-104183333D01*
X170416666Y-104216666D01*
X170383333Y-104250000D01*
X170350000Y-104316666D01*
%TO.C,R5*%
X173283333Y-104616666D02*
X173050000Y-104283333D01*
X172883333Y-104616666D02*
X172883333Y-103916666D01*
X173150000Y-103916666D01*
X173216666Y-103950000D01*
X173250000Y-103983333D01*
X173283333Y-104050000D01*
X173283333Y-104150000D01*
X173250000Y-104216666D01*
X173216666Y-104250000D01*
X173150000Y-104283333D01*
X172883333Y-104283333D01*
X173916666Y-103916666D02*
X173583333Y-103916666D01*
X173550000Y-104250000D01*
X173583333Y-104216666D01*
X173650000Y-104183333D01*
X173816666Y-104183333D01*
X173883333Y-104216666D01*
X173916666Y-104250000D01*
X173950000Y-104316666D01*
X173950000Y-104483333D01*
X173916666Y-104550000D01*
X173883333Y-104583333D01*
X173816666Y-104616666D01*
X173650000Y-104616666D01*
X173583333Y-104583333D01*
X173550000Y-104550000D01*
%TO.C,R4*%
X178083333Y-96356666D02*
X177850000Y-96023333D01*
X177683333Y-96356666D02*
X177683333Y-95656666D01*
X177950000Y-95656666D01*
X178016666Y-95690000D01*
X178050000Y-95723333D01*
X178083333Y-95790000D01*
X178083333Y-95890000D01*
X178050000Y-95956666D01*
X178016666Y-95990000D01*
X177950000Y-96023333D01*
X177683333Y-96023333D01*
X178683333Y-95890000D02*
X178683333Y-96356666D01*
X178516666Y-95623333D02*
X178350000Y-96123333D01*
X178783333Y-96123333D01*
%TO.C,R3*%
X167593333Y-96916666D02*
X167360000Y-96583333D01*
X167193333Y-96916666D02*
X167193333Y-96216666D01*
X167460000Y-96216666D01*
X167526666Y-96250000D01*
X167560000Y-96283333D01*
X167593333Y-96350000D01*
X167593333Y-96450000D01*
X167560000Y-96516666D01*
X167526666Y-96550000D01*
X167460000Y-96583333D01*
X167193333Y-96583333D01*
X167826666Y-96216666D02*
X168260000Y-96216666D01*
X168026666Y-96483333D01*
X168126666Y-96483333D01*
X168193333Y-96516666D01*
X168226666Y-96550000D01*
X168260000Y-96616666D01*
X168260000Y-96783333D01*
X168226666Y-96850000D01*
X168193333Y-96883333D01*
X168126666Y-96916666D01*
X167926666Y-96916666D01*
X167860000Y-96883333D01*
X167826666Y-96850000D01*
%TO.C,R2*%
X167483333Y-105076666D02*
X167250000Y-104743333D01*
X167083333Y-105076666D02*
X167083333Y-104376666D01*
X167350000Y-104376666D01*
X167416666Y-104410000D01*
X167450000Y-104443333D01*
X167483333Y-104510000D01*
X167483333Y-104610000D01*
X167450000Y-104676666D01*
X167416666Y-104710000D01*
X167350000Y-104743333D01*
X167083333Y-104743333D01*
X167750000Y-104443333D02*
X167783333Y-104410000D01*
X167850000Y-104376666D01*
X168016666Y-104376666D01*
X168083333Y-104410000D01*
X168116666Y-104443333D01*
X168150000Y-104510000D01*
X168150000Y-104576666D01*
X168116666Y-104676666D01*
X167716666Y-105076666D01*
X168150000Y-105076666D01*
%TO.C,R1*%
X167533333Y-98966666D02*
X167300000Y-98633333D01*
X167133333Y-98966666D02*
X167133333Y-98266666D01*
X167400000Y-98266666D01*
X167466666Y-98300000D01*
X167500000Y-98333333D01*
X167533333Y-98400000D01*
X167533333Y-98500000D01*
X167500000Y-98566666D01*
X167466666Y-98600000D01*
X167400000Y-98633333D01*
X167133333Y-98633333D01*
X168200000Y-98966666D02*
X167800000Y-98966666D01*
X168000000Y-98966666D02*
X168000000Y-98266666D01*
X167933333Y-98366666D01*
X167866666Y-98433333D01*
X167800000Y-98466666D01*
%TO.C,C3*%
X160533333Y-92270000D02*
X160500000Y-92303333D01*
X160400000Y-92336666D01*
X160333333Y-92336666D01*
X160233333Y-92303333D01*
X160166666Y-92236666D01*
X160133333Y-92170000D01*
X160100000Y-92036666D01*
X160100000Y-91936666D01*
X160133333Y-91803333D01*
X160166666Y-91736666D01*
X160233333Y-91670000D01*
X160333333Y-91636666D01*
X160400000Y-91636666D01*
X160500000Y-91670000D01*
X160533333Y-91703333D01*
X160766666Y-91636666D02*
X161200000Y-91636666D01*
X160966666Y-91903333D01*
X161066666Y-91903333D01*
X161133333Y-91936666D01*
X161166666Y-91970000D01*
X161200000Y-92036666D01*
X161200000Y-92203333D01*
X161166666Y-92270000D01*
X161133333Y-92303333D01*
X161066666Y-92336666D01*
X160866666Y-92336666D01*
X160800000Y-92303333D01*
X160766666Y-92270000D01*
%TO.C,C2*%
X178033333Y-92150000D02*
X178000000Y-92183333D01*
X177900000Y-92216666D01*
X177833333Y-92216666D01*
X177733333Y-92183333D01*
X177666666Y-92116666D01*
X177633333Y-92050000D01*
X177600000Y-91916666D01*
X177600000Y-91816666D01*
X177633333Y-91683333D01*
X177666666Y-91616666D01*
X177733333Y-91550000D01*
X177833333Y-91516666D01*
X177900000Y-91516666D01*
X178000000Y-91550000D01*
X178033333Y-91583333D01*
X178300000Y-91583333D02*
X178333333Y-91550000D01*
X178400000Y-91516666D01*
X178566666Y-91516666D01*
X178633333Y-91550000D01*
X178666666Y-91583333D01*
X178700000Y-91650000D01*
X178700000Y-91716666D01*
X178666666Y-91816666D01*
X178266666Y-92216666D01*
X178700000Y-92216666D01*
%TO.C,C1*%
X167603333Y-92970000D02*
X167570000Y-93003333D01*
X167470000Y-93036666D01*
X167403333Y-93036666D01*
X167303333Y-93003333D01*
X167236666Y-92936666D01*
X167203333Y-92870000D01*
X167170000Y-92736666D01*
X167170000Y-92636666D01*
X167203333Y-92503333D01*
X167236666Y-92436666D01*
X167303333Y-92370000D01*
X167403333Y-92336666D01*
X167470000Y-92336666D01*
X167570000Y-92370000D01*
X167603333Y-92403333D01*
X168270000Y-93036666D02*
X167870000Y-93036666D01*
X168070000Y-93036666D02*
X168070000Y-92336666D01*
X168003333Y-92436666D01*
X167936666Y-92503333D01*
X167870000Y-92536666D01*
%TO.C,BZ1*%
X147833333Y-92300000D02*
X147933333Y-92333333D01*
X147966666Y-92366666D01*
X148000000Y-92433333D01*
X148000000Y-92533333D01*
X147966666Y-92600000D01*
X147933333Y-92633333D01*
X147866666Y-92666666D01*
X147600000Y-92666666D01*
X147600000Y-91966666D01*
X147833333Y-91966666D01*
X147900000Y-92000000D01*
X147933333Y-92033333D01*
X147966666Y-92100000D01*
X147966666Y-92166666D01*
X147933333Y-92233333D01*
X147900000Y-92266666D01*
X147833333Y-92300000D01*
X147600000Y-92300000D01*
X148233333Y-91966666D02*
X148700000Y-91966666D01*
X148233333Y-92666666D01*
X148700000Y-92666666D01*
X149333333Y-92666666D02*
X148933333Y-92666666D01*
X149133333Y-92666666D02*
X149133333Y-91966666D01*
X149066666Y-92066666D01*
X149000000Y-92133333D01*
X148933333Y-92166666D01*
%TO.C,U6*%
X138466666Y-94916666D02*
X138466666Y-95483333D01*
X138500000Y-95550000D01*
X138533333Y-95583333D01*
X138600000Y-95616666D01*
X138733333Y-95616666D01*
X138800000Y-95583333D01*
X138833333Y-95550000D01*
X138866666Y-95483333D01*
X138866666Y-94916666D01*
X139500000Y-94916666D02*
X139366666Y-94916666D01*
X139300000Y-94950000D01*
X139266666Y-94983333D01*
X139200000Y-95083333D01*
X139166666Y-95216666D01*
X139166666Y-95483333D01*
X139200000Y-95550000D01*
X139233333Y-95583333D01*
X139300000Y-95616666D01*
X139433333Y-95616666D01*
X139500000Y-95583333D01*
X139533333Y-95550000D01*
X139566666Y-95483333D01*
X139566666Y-95316666D01*
X139533333Y-95250000D01*
X139500000Y-95216666D01*
X139433333Y-95183333D01*
X139300000Y-95183333D01*
X139233333Y-95216666D01*
X139200000Y-95250000D01*
X139166666Y-95316666D01*
%TO.C,U4*%
X157316666Y-93986666D02*
X157316666Y-94553333D01*
X157350000Y-94620000D01*
X157383333Y-94653333D01*
X157450000Y-94686666D01*
X157583333Y-94686666D01*
X157650000Y-94653333D01*
X157683333Y-94620000D01*
X157716666Y-94553333D01*
X157716666Y-93986666D01*
X158350000Y-94220000D02*
X158350000Y-94686666D01*
X158183333Y-93953333D02*
X158016666Y-94453333D01*
X158450000Y-94453333D01*
%TO.C,U1*%
X171716666Y-95316666D02*
X171716666Y-95883333D01*
X171750000Y-95950000D01*
X171783333Y-95983333D01*
X171850000Y-96016666D01*
X171983333Y-96016666D01*
X172050000Y-95983333D01*
X172083333Y-95950000D01*
X172116666Y-95883333D01*
X172116666Y-95316666D01*
X172816666Y-96016666D02*
X172416666Y-96016666D01*
X172616666Y-96016666D02*
X172616666Y-95316666D01*
X172550000Y-95416666D01*
X172483333Y-95483333D01*
X172416666Y-95516666D01*
%TO.C,SW1*%
X106516666Y-97183333D02*
X106616666Y-97216666D01*
X106783333Y-97216666D01*
X106850000Y-97183333D01*
X106883333Y-97150000D01*
X106916666Y-97083333D01*
X106916666Y-97016666D01*
X106883333Y-96950000D01*
X106850000Y-96916666D01*
X106783333Y-96883333D01*
X106650000Y-96850000D01*
X106583333Y-96816666D01*
X106550000Y-96783333D01*
X106516666Y-96716666D01*
X106516666Y-96650000D01*
X106550000Y-96583333D01*
X106583333Y-96550000D01*
X106650000Y-96516666D01*
X106816666Y-96516666D01*
X106916666Y-96550000D01*
X107150000Y-96516666D02*
X107316666Y-97216666D01*
X107450000Y-96716666D01*
X107583333Y-97216666D01*
X107750000Y-96516666D01*
X108383333Y-97216666D02*
X107983333Y-97216666D01*
X108183333Y-97216666D02*
X108183333Y-96516666D01*
X108116666Y-96616666D01*
X108050000Y-96683333D01*
X107983333Y-96716666D01*
%TO.C,BT1*%
X131350000Y-105450000D02*
X131450000Y-105483333D01*
X131483333Y-105516666D01*
X131516666Y-105583333D01*
X131516666Y-105683333D01*
X131483333Y-105750000D01*
X131450000Y-105783333D01*
X131383333Y-105816666D01*
X131116666Y-105816666D01*
X131116666Y-105116666D01*
X131350000Y-105116666D01*
X131416666Y-105150000D01*
X131450000Y-105183333D01*
X131483333Y-105250000D01*
X131483333Y-105316666D01*
X131450000Y-105383333D01*
X131416666Y-105416666D01*
X131350000Y-105450000D01*
X131116666Y-105450000D01*
X131716666Y-105116666D02*
X132116666Y-105116666D01*
X131916666Y-105816666D02*
X131916666Y-105116666D01*
X132716666Y-105816666D02*
X132316666Y-105816666D01*
X132516666Y-105816666D02*
X132516666Y-105116666D01*
X132450000Y-105216666D01*
X132383333Y-105283333D01*
X132316666Y-105316666D01*
D11*
%TO.C,U2*%
X123200000Y-123070000D02*
X125700000Y-123070000D01*
X125700000Y-123070000D02*
X125700000Y-135070000D01*
X125700000Y-135070000D02*
X114950000Y-135070000D01*
X114950000Y-135070000D02*
X114950000Y-123070000D01*
X114950000Y-123070000D02*
X117450000Y-123070000D01*
X117450000Y-123070000D02*
X117450000Y-110570000D01*
X117450000Y-110570000D02*
X123200000Y-110570000D01*
X123200000Y-110570000D02*
X123200000Y-123070000D01*
G36*
X123200000Y-123070000D02*
G01*
X125700000Y-123070000D01*
X125700000Y-135070000D01*
X114950000Y-135070000D01*
X114950000Y-123070000D01*
X117450000Y-123070000D01*
X117450000Y-110570000D01*
X123200000Y-110570000D01*
X123200000Y-123070000D01*
G37*
X123200000Y-123070000D02*
X125700000Y-123070000D01*
X125700000Y-135070000D01*
X114950000Y-135070000D01*
X114950000Y-123070000D01*
X117450000Y-123070000D01*
X117450000Y-110570000D01*
X123200000Y-110570000D01*
X123200000Y-123070000D01*
X144200000Y-123070000D02*
X148200000Y-123070000D01*
X148200000Y-123070000D02*
X148200000Y-135070000D01*
X148200000Y-135070000D02*
X137450000Y-135070000D01*
X137450000Y-135070000D02*
X137450000Y-110570000D01*
X137450000Y-110570000D02*
X144200000Y-110570000D01*
X144200000Y-110570000D02*
X144200000Y-123070000D01*
G36*
X144200000Y-123070000D02*
G01*
X148200000Y-123070000D01*
X148200000Y-135070000D01*
X137450000Y-135070000D01*
X137450000Y-110570000D01*
X144200000Y-110570000D01*
X144200000Y-123070000D01*
G37*
X144200000Y-123070000D02*
X148200000Y-123070000D01*
X148200000Y-135070000D01*
X137450000Y-135070000D01*
X137450000Y-110570000D01*
X144200000Y-110570000D01*
X144200000Y-123070000D01*
X193200000Y-135070000D02*
X182450000Y-135070000D01*
X182450000Y-135070000D02*
X182450000Y-110570000D01*
X182450000Y-110570000D02*
X193200000Y-110570000D01*
X193200000Y-110570000D02*
X193200000Y-135070000D01*
G36*
X193200000Y-135070000D02*
G01*
X182450000Y-135070000D01*
X182450000Y-110570000D01*
X193200000Y-110570000D01*
X193200000Y-135070000D01*
G37*
X193200000Y-135070000D02*
X182450000Y-135070000D01*
X182450000Y-110570000D01*
X193200000Y-110570000D01*
X193200000Y-135070000D01*
X156200000Y-123070000D02*
X159450000Y-123070000D01*
X159450000Y-123070000D02*
X159450000Y-135070000D01*
X159450000Y-135070000D02*
X148700000Y-135070000D01*
X148700000Y-135070000D02*
X148700000Y-123070000D01*
X148700000Y-123070000D02*
X151200000Y-123070000D01*
X151200000Y-123070000D02*
X151200000Y-110570000D01*
X151200000Y-110570000D02*
X156200000Y-110570000D01*
X156200000Y-110570000D02*
X156200000Y-123070000D01*
G36*
X156200000Y-123070000D02*
G01*
X159450000Y-123070000D01*
X159450000Y-135070000D01*
X148700000Y-135070000D01*
X148700000Y-123070000D01*
X151200000Y-123070000D01*
X151200000Y-110570000D01*
X156200000Y-110570000D01*
X156200000Y-123070000D01*
G37*
X156200000Y-123070000D02*
X159450000Y-123070000D01*
X159450000Y-135070000D01*
X148700000Y-135070000D01*
X148700000Y-123070000D01*
X151200000Y-123070000D01*
X151200000Y-110570000D01*
X156200000Y-110570000D01*
X156200000Y-123070000D01*
X110450000Y-123070000D02*
X114450000Y-123070000D01*
X114450000Y-123070000D02*
X114450000Y-135070000D01*
X114450000Y-135070000D02*
X103700000Y-135070000D01*
X103700000Y-135070000D02*
X103700000Y-110570000D01*
X103700000Y-110570000D02*
X110450000Y-110570000D01*
X110450000Y-110570000D02*
X110450000Y-123070000D01*
G36*
X110450000Y-123070000D02*
G01*
X114450000Y-123070000D01*
X114450000Y-135070000D01*
X103700000Y-135070000D01*
X103700000Y-110570000D01*
X110450000Y-110570000D01*
X110450000Y-123070000D01*
G37*
X110450000Y-123070000D02*
X114450000Y-123070000D01*
X114450000Y-135070000D01*
X103700000Y-135070000D01*
X103700000Y-110570000D01*
X110450000Y-110570000D01*
X110450000Y-123070000D01*
X181950000Y-135070000D02*
X171200000Y-135070000D01*
X171200000Y-135070000D02*
X171200000Y-123070000D01*
X171200000Y-123070000D02*
X175200000Y-123070000D01*
X175200000Y-123070000D02*
X175200000Y-110570000D01*
X175200000Y-110570000D02*
X181950000Y-110570000D01*
X181950000Y-110570000D02*
X181950000Y-135070000D01*
G36*
X181950000Y-135070000D02*
G01*
X171200000Y-135070000D01*
X171200000Y-123070000D01*
X175200000Y-123070000D01*
X175200000Y-110570000D01*
X181950000Y-110570000D01*
X181950000Y-135070000D01*
G37*
X181950000Y-135070000D02*
X171200000Y-135070000D01*
X171200000Y-123070000D01*
X175200000Y-123070000D01*
X175200000Y-110570000D01*
X181950000Y-110570000D01*
X181950000Y-135070000D01*
X136950000Y-135070000D02*
X126200000Y-135070000D01*
X126200000Y-135070000D02*
X126200000Y-123070000D01*
X126200000Y-123070000D02*
X130200000Y-123070000D01*
X130200000Y-123070000D02*
X130200000Y-110570000D01*
X130200000Y-110570000D02*
X136950000Y-110570000D01*
X136950000Y-110570000D02*
X136950000Y-135070000D01*
G36*
X136950000Y-135070000D02*
G01*
X126200000Y-135070000D01*
X126200000Y-123070000D01*
X130200000Y-123070000D01*
X130200000Y-110570000D01*
X136950000Y-110570000D01*
X136950000Y-135070000D01*
G37*
X136950000Y-135070000D02*
X126200000Y-135070000D01*
X126200000Y-123070000D01*
X130200000Y-123070000D01*
X130200000Y-110570000D01*
X136950000Y-110570000D01*
X136950000Y-135070000D01*
X168200000Y-123070000D02*
X170700000Y-123070000D01*
X170700000Y-123070000D02*
X170700000Y-135070000D01*
X170700000Y-135070000D02*
X159950000Y-135070000D01*
X159950000Y-135070000D02*
X159950000Y-123070000D01*
X159950000Y-123070000D02*
X163200000Y-123070000D01*
X163200000Y-123070000D02*
X163200000Y-110570000D01*
X163200000Y-110570000D02*
X168200000Y-110570000D01*
X168200000Y-110570000D02*
X168200000Y-123070000D01*
G36*
X168200000Y-123070000D02*
G01*
X170700000Y-123070000D01*
X170700000Y-135070000D01*
X159950000Y-135070000D01*
X159950000Y-123070000D01*
X163200000Y-123070000D01*
X163200000Y-110570000D01*
X168200000Y-110570000D01*
X168200000Y-123070000D01*
G37*
X168200000Y-123070000D02*
X170700000Y-123070000D01*
X170700000Y-135070000D01*
X159950000Y-135070000D01*
X159950000Y-123070000D01*
X163200000Y-123070000D01*
X163200000Y-110570000D01*
X168200000Y-110570000D01*
X168200000Y-123070000D01*
%TO.C,U3*%
X193200000Y-107600000D02*
X185700000Y-107600000D01*
X185700000Y-107600000D02*
X185700000Y-105600000D01*
X185700000Y-105600000D02*
X183700000Y-105600000D01*
X183700000Y-105600000D02*
X183700000Y-104100000D01*
X183700000Y-104100000D02*
X185700000Y-104100000D01*
X185700000Y-104100000D02*
X185700000Y-102100000D01*
X185700000Y-102100000D02*
X193200000Y-102100000D01*
X193200000Y-102100000D02*
X193200000Y-107600000D01*
G36*
X193200000Y-107600000D02*
G01*
X185700000Y-107600000D01*
X185700000Y-105600000D01*
X183700000Y-105600000D01*
X183700000Y-104100000D01*
X185700000Y-104100000D01*
X185700000Y-102100000D01*
X193200000Y-102100000D01*
X193200000Y-107600000D01*
G37*
X193200000Y-107600000D02*
X185700000Y-107600000D01*
X185700000Y-105600000D01*
X183700000Y-105600000D01*
X183700000Y-104100000D01*
X185700000Y-104100000D01*
X185700000Y-102100000D01*
X193200000Y-102100000D01*
X193200000Y-107600000D01*
X193200000Y-95600000D02*
X185700000Y-95600000D01*
X185700000Y-95600000D02*
X185700000Y-93600000D01*
X185700000Y-93600000D02*
X183700000Y-93600000D01*
X183700000Y-93600000D02*
X183700000Y-92100000D01*
X183700000Y-92100000D02*
X185700000Y-92100000D01*
X185700000Y-92100000D02*
X185700000Y-90100000D01*
X185700000Y-90100000D02*
X193200000Y-90100000D01*
X193200000Y-90100000D02*
X193200000Y-95600000D01*
G36*
X193200000Y-95600000D02*
G01*
X185700000Y-95600000D01*
X185700000Y-93600000D01*
X183700000Y-93600000D01*
X183700000Y-92100000D01*
X185700000Y-92100000D01*
X185700000Y-90100000D01*
X193200000Y-90100000D01*
X193200000Y-95600000D01*
G37*
X193200000Y-95600000D02*
X185700000Y-95600000D01*
X185700000Y-93600000D01*
X183700000Y-93600000D01*
X183700000Y-92100000D01*
X185700000Y-92100000D01*
X185700000Y-90100000D01*
X193200000Y-90100000D01*
X193200000Y-95600000D01*
X193200000Y-101600000D02*
X185700000Y-101600000D01*
X185700000Y-101600000D02*
X185700000Y-99600000D01*
X185700000Y-99600000D02*
X183700000Y-99600000D01*
X183700000Y-99600000D02*
X183700000Y-98100000D01*
X183700000Y-98100000D02*
X185700000Y-98100000D01*
X185700000Y-98100000D02*
X185700000Y-96100000D01*
X185700000Y-96100000D02*
X193200000Y-96100000D01*
X193200000Y-96100000D02*
X193200000Y-101600000D01*
G36*
X193200000Y-101600000D02*
G01*
X185700000Y-101600000D01*
X185700000Y-99600000D01*
X183700000Y-99600000D01*
X183700000Y-98100000D01*
X185700000Y-98100000D01*
X185700000Y-96100000D01*
X193200000Y-96100000D01*
X193200000Y-101600000D01*
G37*
X193200000Y-101600000D02*
X185700000Y-101600000D01*
X185700000Y-99600000D01*
X183700000Y-99600000D01*
X183700000Y-98100000D01*
X185700000Y-98100000D01*
X185700000Y-96100000D01*
X193200000Y-96100000D01*
X193200000Y-101600000D01*
X185700000Y-93600000D02*
G75*
G03*
X185700000Y-93600000I0J0D01*
G01*
D12*
X186730000Y-105600000D02*
G75*
G03*
X186730000Y-105600000I-1030000J0D01*
G01*
D11*
X185700000Y-92100000D02*
G75*
G03*
X185700000Y-92100000I0J0D01*
G01*
D12*
X186730000Y-104100000D02*
G75*
G03*
X186730000Y-104100000I-1030000J0D01*
G01*
X186730000Y-92100000D02*
G75*
G03*
X186730000Y-92100000I-1030000J0D01*
G01*
X186730000Y-93600000D02*
G75*
G03*
X186730000Y-93600000I-1030000J0D01*
G01*
X186730000Y-98100000D02*
G75*
G03*
X186730000Y-98100000I-1030000J0D01*
G01*
X186730000Y-99600000D02*
G75*
G03*
X186730000Y-99600000I-1030000J0D01*
G01*
D11*
%TO.C,D1*%
X140350000Y-102700000D02*
X137800000Y-102700000D01*
X140350000Y-101000000D02*
X137800000Y-101000000D01*
X140350000Y-102700000D02*
X140350000Y-101000000D01*
%TO.C,R12*%
X179362742Y-100452500D02*
X179837258Y-100452500D01*
X179362742Y-99407500D02*
X179837258Y-99407500D01*
%TO.C,R11*%
X176662742Y-106102500D02*
X177137258Y-106102500D01*
X176662742Y-105057500D02*
X177137258Y-105057500D01*
%TO.C,R10*%
X160937258Y-89077500D02*
X160462742Y-89077500D01*
X160937258Y-90122500D02*
X160462742Y-90122500D01*
%TO.C,R9*%
X163937258Y-89077500D02*
X163462742Y-89077500D01*
X163937258Y-90122500D02*
X163462742Y-90122500D01*
%TO.C,R8*%
X179362742Y-103052500D02*
X179837258Y-103052500D01*
X179362742Y-102007500D02*
X179837258Y-102007500D01*
%TO.C,R7*%
X179962742Y-106052500D02*
X180437258Y-106052500D01*
X179962742Y-105007500D02*
X180437258Y-105007500D01*
%TO.C,R6*%
X169962742Y-106252500D02*
X170437258Y-106252500D01*
X169962742Y-105207500D02*
X170437258Y-105207500D01*
%TO.C,R5*%
X173162742Y-106252500D02*
X173637258Y-106252500D01*
X173162742Y-105207500D02*
X173637258Y-105207500D01*
%TO.C,R4*%
X177912742Y-95382500D02*
X178387258Y-95382500D01*
X177912742Y-94337500D02*
X178387258Y-94337500D01*
%TO.C,R3*%
X167442742Y-95892500D02*
X167917258Y-95892500D01*
X167442742Y-94847500D02*
X167917258Y-94847500D01*
%TO.C,R2*%
X167837258Y-102807500D02*
X167362742Y-102807500D01*
X167837258Y-103852500D02*
X167362742Y-103852500D01*
%TO.C,R1*%
X167412742Y-100602500D02*
X167887258Y-100602500D01*
X167412742Y-99557500D02*
X167887258Y-99557500D01*
%TO.C,C3*%
X160509420Y-93960000D02*
X160790580Y-93960000D01*
X160509420Y-92940000D02*
X160790580Y-92940000D01*
%TO.C,C2*%
X178009420Y-93840000D02*
X178290580Y-93840000D01*
X178009420Y-92820000D02*
X178290580Y-92820000D01*
%TO.C,C1*%
X167489420Y-94380000D02*
X167770580Y-94380000D01*
X167489420Y-93360000D02*
X167770580Y-93360000D01*
%TO.C,BZ1*%
X142330000Y-97090000D02*
X142030000Y-97090000D01*
X142330000Y-105470000D02*
X142330000Y-101610000D01*
X154570000Y-105470000D02*
X142330000Y-105470000D01*
X154570000Y-101610000D02*
X154570000Y-105470000D01*
X154570000Y-93230000D02*
X154570000Y-97090000D01*
X142330000Y-93230000D02*
X154570000Y-93230000D01*
X142330000Y-97090000D02*
X142330000Y-93230000D01*
%TO.C,U6*%
X138900000Y-99160000D02*
X140700000Y-99160000D01*
X138900000Y-99160000D02*
X138100000Y-99160000D01*
X138900000Y-96040000D02*
X139700000Y-96040000D01*
X138900000Y-96040000D02*
X138100000Y-96040000D01*
%TO.C,U4*%
X160450000Y-95215000D02*
X157000000Y-95215000D01*
X160450000Y-95215000D02*
X162400000Y-95215000D01*
X160450000Y-104085000D02*
X158500000Y-104085000D01*
X160450000Y-104085000D02*
X162400000Y-104085000D01*
%TO.C,U1*%
X172015000Y-96720000D02*
X171540000Y-96720000D01*
X176760000Y-101940000D02*
X176760000Y-101465000D01*
X176285000Y-101940000D02*
X176760000Y-101940000D01*
X171540000Y-101940000D02*
X171540000Y-101465000D01*
X172015000Y-101940000D02*
X171540000Y-101940000D01*
X176760000Y-96720000D02*
X176760000Y-97195000D01*
X176285000Y-96720000D02*
X176760000Y-96720000D01*
%TO.C,SW1*%
X103550000Y-102200000D02*
X103550000Y-102200000D01*
X103550000Y-103000000D02*
X103550000Y-102200000D01*
X103550000Y-103300000D02*
X103550000Y-103300000D01*
X103550000Y-103800000D02*
X103550000Y-103300000D01*
X103550000Y-101900000D02*
X103550000Y-101900000D01*
X103550000Y-101400000D02*
X103550000Y-101900000D01*
X104850000Y-100600000D02*
X104850000Y-100600000D01*
X104350000Y-100600000D02*
X104850000Y-100600000D01*
X104850000Y-104600000D02*
X104850000Y-104600000D01*
X104350000Y-104600000D02*
X104850000Y-104600000D01*
X104050000Y-104600000D02*
X104050000Y-104600000D01*
X103550000Y-104600000D02*
X104050000Y-104600000D01*
X103550000Y-104100000D02*
X103550000Y-104100000D01*
X103550000Y-104600000D02*
X103550000Y-104100000D01*
X103550000Y-101100000D02*
X103550000Y-101100000D01*
X103550000Y-100600000D02*
X103550000Y-101100000D01*
X104050000Y-100600000D02*
X104050000Y-100600000D01*
X103550000Y-100600000D02*
X104050000Y-100600000D01*
X105450000Y-98000000D02*
X105450000Y-98000000D01*
X105450000Y-99700000D02*
X105450000Y-98000000D01*
X105150000Y-99700000D02*
X105450000Y-99700000D01*
X105150000Y-100500000D02*
X105150000Y-99700000D01*
X105450000Y-100500000D02*
X105150000Y-100500000D01*
X105450000Y-102200000D02*
X105450000Y-100500000D01*
X105150000Y-102200000D02*
X105450000Y-102200000D01*
X105150000Y-103000000D02*
X105150000Y-102200000D01*
X105450000Y-103000000D02*
X105150000Y-103000000D01*
X105450000Y-104700000D02*
X105450000Y-103000000D01*
X105150000Y-104700000D02*
X105450000Y-104700000D01*
X105150000Y-105500000D02*
X105150000Y-104700000D01*
X105450000Y-105500000D02*
X105150000Y-105500000D01*
X105450000Y-107200000D02*
X105450000Y-105500000D01*
X109250000Y-100800000D02*
X109250000Y-100800000D01*
X109250000Y-101900000D02*
X109250000Y-100800000D01*
X109250000Y-103300000D02*
X109250000Y-103300000D01*
X109250000Y-104400000D02*
X109250000Y-103300000D01*
X109250000Y-98000000D02*
X109250000Y-99400000D01*
X105450000Y-98000000D02*
X109250000Y-98000000D01*
X109250000Y-107200000D02*
X105450000Y-107200000D01*
X109250000Y-105800000D02*
X109250000Y-107200000D01*
%TO.C,BT1*%
X114950000Y-104290000D02*
X118450000Y-104290000D01*
X112870000Y-93750000D02*
X112870000Y-93120000D01*
X112870000Y-102210000D02*
X112870000Y-99750000D01*
X134430000Y-93750000D02*
X134430000Y-93120000D01*
X134430000Y-102210000D02*
X134430000Y-99750000D01*
X114324756Y-89161831D02*
G75*
G02*
X117650000Y-88200000I2015244J-738169D01*
G01*
X112870000Y-93120000D02*
X114310000Y-89170000D01*
X114950000Y-104290000D02*
X112870000Y-102210000D01*
X128850000Y-104290000D02*
X132350000Y-104290000D01*
X132350000Y-104290000D02*
X134430000Y-102210000D01*
X134430000Y-93120000D02*
X132990000Y-89170000D01*
X129653354Y-88183470D02*
G75*
G02*
X132990000Y-89170000I1306646J-1716530D01*
G01*
%TD*%
M02*
