G04 #@! TF.GenerationSoftware,KiCad,Pcbnew,(5.1.5-0-10_14)*
G04 #@! TF.CreationDate,2021-02-06T16:20:19+00:00*
G04 #@! TF.ProjectId,keyboard,6b657962-6f61-4726-942e-6b696361645f,rev?*
G04 #@! TF.SameCoordinates,Original*
G04 #@! TF.FileFunction,Soldermask,Top*
G04 #@! TF.FilePolarity,Negative*
%FSLAX46Y46*%
G04 Gerber Fmt 4.6, Leading zero omitted, Abs format (unit mm)*
G04 Created by KiCad (PCBNEW (5.1.5-0-10_14)) date 2021-02-06 16:20:19*
%MOMM*%
%LPD*%
G04 APERTURE LIST*
%ADD10C,0.100000*%
G04 APERTURE END LIST*
D10*
G36*
X189551000Y-122051000D02*
G01*
X188449000Y-122051000D01*
X188449000Y-118749000D01*
X189551000Y-118749000D01*
X189551000Y-122051000D01*
G37*
G36*
X185551000Y-122051000D02*
G01*
X184449000Y-122051000D01*
X184449000Y-118749000D01*
X185551000Y-118749000D01*
X185551000Y-122051000D01*
G37*
G36*
X179551000Y-122051000D02*
G01*
X178449000Y-122051000D01*
X178449000Y-118749000D01*
X179551000Y-118749000D01*
X179551000Y-122051000D01*
G37*
G36*
X175551000Y-122051000D02*
G01*
X174449000Y-122051000D01*
X174449000Y-118749000D01*
X175551000Y-118749000D01*
X175551000Y-122051000D01*
G37*
G36*
X169551000Y-122051000D02*
G01*
X168449000Y-122051000D01*
X168449000Y-118749000D01*
X169551000Y-118749000D01*
X169551000Y-122051000D01*
G37*
G36*
X165551000Y-122051000D02*
G01*
X164449000Y-122051000D01*
X164449000Y-118749000D01*
X165551000Y-118749000D01*
X165551000Y-122051000D01*
G37*
G36*
X159551000Y-122051000D02*
G01*
X158449000Y-122051000D01*
X158449000Y-118749000D01*
X159551000Y-118749000D01*
X159551000Y-122051000D01*
G37*
G36*
X155551000Y-122051000D02*
G01*
X154449000Y-122051000D01*
X154449000Y-118749000D01*
X155551000Y-118749000D01*
X155551000Y-122051000D01*
G37*
G36*
X149551000Y-122051000D02*
G01*
X148449000Y-122051000D01*
X148449000Y-118749000D01*
X149551000Y-118749000D01*
X149551000Y-122051000D01*
G37*
G36*
X145551000Y-122051000D02*
G01*
X144449000Y-122051000D01*
X144449000Y-118749000D01*
X145551000Y-118749000D01*
X145551000Y-122051000D01*
G37*
G36*
X139551000Y-122051000D02*
G01*
X138449000Y-122051000D01*
X138449000Y-118749000D01*
X139551000Y-118749000D01*
X139551000Y-122051000D01*
G37*
G36*
X135551000Y-122051000D02*
G01*
X134449000Y-122051000D01*
X134449000Y-118749000D01*
X135551000Y-118749000D01*
X135551000Y-122051000D01*
G37*
G36*
X129551000Y-122051000D02*
G01*
X128449000Y-122051000D01*
X128449000Y-118749000D01*
X129551000Y-118749000D01*
X129551000Y-122051000D01*
G37*
G36*
X125551000Y-122051000D02*
G01*
X124449000Y-122051000D01*
X124449000Y-118749000D01*
X125551000Y-118749000D01*
X125551000Y-122051000D01*
G37*
G36*
X119551000Y-122051000D02*
G01*
X118449000Y-122051000D01*
X118449000Y-118749000D01*
X119551000Y-118749000D01*
X119551000Y-122051000D01*
G37*
G36*
X115551000Y-122051000D02*
G01*
X114449000Y-122051000D01*
X114449000Y-118749000D01*
X115551000Y-118749000D01*
X115551000Y-122051000D01*
G37*
G36*
X188051000Y-122001000D02*
G01*
X187449000Y-122001000D01*
X187449000Y-120999000D01*
X188051000Y-120999000D01*
X188051000Y-122001000D01*
G37*
G36*
X186551000Y-122001000D02*
G01*
X185949000Y-122001000D01*
X185949000Y-120999000D01*
X186551000Y-120999000D01*
X186551000Y-122001000D01*
G37*
G36*
X178051000Y-122001000D02*
G01*
X177449000Y-122001000D01*
X177449000Y-120999000D01*
X178051000Y-120999000D01*
X178051000Y-122001000D01*
G37*
G36*
X176551000Y-122001000D02*
G01*
X175949000Y-122001000D01*
X175949000Y-120999000D01*
X176551000Y-120999000D01*
X176551000Y-122001000D01*
G37*
G36*
X168051000Y-122001000D02*
G01*
X167449000Y-122001000D01*
X167449000Y-120999000D01*
X168051000Y-120999000D01*
X168051000Y-122001000D01*
G37*
G36*
X166551000Y-122001000D02*
G01*
X165949000Y-122001000D01*
X165949000Y-120999000D01*
X166551000Y-120999000D01*
X166551000Y-122001000D01*
G37*
G36*
X158051000Y-122001000D02*
G01*
X157449000Y-122001000D01*
X157449000Y-120999000D01*
X158051000Y-120999000D01*
X158051000Y-122001000D01*
G37*
G36*
X156551000Y-122001000D02*
G01*
X155949000Y-122001000D01*
X155949000Y-120999000D01*
X156551000Y-120999000D01*
X156551000Y-122001000D01*
G37*
G36*
X148051000Y-122001000D02*
G01*
X147449000Y-122001000D01*
X147449000Y-120999000D01*
X148051000Y-120999000D01*
X148051000Y-122001000D01*
G37*
G36*
X146551000Y-122001000D02*
G01*
X145949000Y-122001000D01*
X145949000Y-120999000D01*
X146551000Y-120999000D01*
X146551000Y-122001000D01*
G37*
G36*
X138051000Y-122001000D02*
G01*
X137449000Y-122001000D01*
X137449000Y-120999000D01*
X138051000Y-120999000D01*
X138051000Y-122001000D01*
G37*
G36*
X136551000Y-122001000D02*
G01*
X135949000Y-122001000D01*
X135949000Y-120999000D01*
X136551000Y-120999000D01*
X136551000Y-122001000D01*
G37*
G36*
X128051000Y-122001000D02*
G01*
X127449000Y-122001000D01*
X127449000Y-120999000D01*
X128051000Y-120999000D01*
X128051000Y-122001000D01*
G37*
G36*
X126551000Y-122001000D02*
G01*
X125949000Y-122001000D01*
X125949000Y-120999000D01*
X126551000Y-120999000D01*
X126551000Y-122001000D01*
G37*
G36*
X118051000Y-122001000D02*
G01*
X117449000Y-122001000D01*
X117449000Y-120999000D01*
X118051000Y-120999000D01*
X118051000Y-122001000D01*
G37*
G36*
X116551000Y-122001000D02*
G01*
X115949000Y-122001000D01*
X115949000Y-120999000D01*
X116551000Y-120999000D01*
X116551000Y-122001000D01*
G37*
G36*
X115551000Y-115251000D02*
G01*
X114449000Y-115251000D01*
X114449000Y-111949000D01*
X115551000Y-111949000D01*
X115551000Y-115251000D01*
G37*
G36*
X189551000Y-115251000D02*
G01*
X188449000Y-115251000D01*
X188449000Y-111949000D01*
X189551000Y-111949000D01*
X189551000Y-115251000D01*
G37*
G36*
X119551000Y-115251000D02*
G01*
X118449000Y-115251000D01*
X118449000Y-111949000D01*
X119551000Y-111949000D01*
X119551000Y-115251000D01*
G37*
G36*
X125551000Y-115251000D02*
G01*
X124449000Y-115251000D01*
X124449000Y-111949000D01*
X125551000Y-111949000D01*
X125551000Y-115251000D01*
G37*
G36*
X129551000Y-115251000D02*
G01*
X128449000Y-115251000D01*
X128449000Y-111949000D01*
X129551000Y-111949000D01*
X129551000Y-115251000D01*
G37*
G36*
X135551000Y-115251000D02*
G01*
X134449000Y-115251000D01*
X134449000Y-111949000D01*
X135551000Y-111949000D01*
X135551000Y-115251000D01*
G37*
G36*
X139551000Y-115251000D02*
G01*
X138449000Y-115251000D01*
X138449000Y-111949000D01*
X139551000Y-111949000D01*
X139551000Y-115251000D01*
G37*
G36*
X149551000Y-115251000D02*
G01*
X148449000Y-115251000D01*
X148449000Y-111949000D01*
X149551000Y-111949000D01*
X149551000Y-115251000D01*
G37*
G36*
X145551000Y-115251000D02*
G01*
X144449000Y-115251000D01*
X144449000Y-111949000D01*
X145551000Y-111949000D01*
X145551000Y-115251000D01*
G37*
G36*
X159551000Y-115251000D02*
G01*
X158449000Y-115251000D01*
X158449000Y-111949000D01*
X159551000Y-111949000D01*
X159551000Y-115251000D01*
G37*
G36*
X155551000Y-115251000D02*
G01*
X154449000Y-115251000D01*
X154449000Y-111949000D01*
X155551000Y-111949000D01*
X155551000Y-115251000D01*
G37*
G36*
X169551000Y-115251000D02*
G01*
X168449000Y-115251000D01*
X168449000Y-111949000D01*
X169551000Y-111949000D01*
X169551000Y-115251000D01*
G37*
G36*
X165551000Y-115251000D02*
G01*
X164449000Y-115251000D01*
X164449000Y-111949000D01*
X165551000Y-111949000D01*
X165551000Y-115251000D01*
G37*
G36*
X175551000Y-115251000D02*
G01*
X174449000Y-115251000D01*
X174449000Y-111949000D01*
X175551000Y-111949000D01*
X175551000Y-115251000D01*
G37*
G36*
X179551000Y-115251000D02*
G01*
X178449000Y-115251000D01*
X178449000Y-111949000D01*
X179551000Y-111949000D01*
X179551000Y-115251000D01*
G37*
G36*
X185551000Y-115251000D02*
G01*
X184449000Y-115251000D01*
X184449000Y-111949000D01*
X185551000Y-111949000D01*
X185551000Y-115251000D01*
G37*
G36*
X118051000Y-113001000D02*
G01*
X117449000Y-113001000D01*
X117449000Y-111999000D01*
X118051000Y-111999000D01*
X118051000Y-113001000D01*
G37*
G36*
X116551000Y-113001000D02*
G01*
X115949000Y-113001000D01*
X115949000Y-111999000D01*
X116551000Y-111999000D01*
X116551000Y-113001000D01*
G37*
G36*
X186551000Y-113001000D02*
G01*
X185949000Y-113001000D01*
X185949000Y-111999000D01*
X186551000Y-111999000D01*
X186551000Y-113001000D01*
G37*
G36*
X188051000Y-113001000D02*
G01*
X187449000Y-113001000D01*
X187449000Y-111999000D01*
X188051000Y-111999000D01*
X188051000Y-113001000D01*
G37*
G36*
X174551000Y-109551000D02*
G01*
X173449000Y-109551000D01*
X173449000Y-106249000D01*
X174551000Y-106249000D01*
X174551000Y-109551000D01*
G37*
G36*
X170551000Y-109551000D02*
G01*
X169449000Y-109551000D01*
X169449000Y-106249000D01*
X170551000Y-106249000D01*
X170551000Y-109551000D01*
G37*
G36*
X130551000Y-109551000D02*
G01*
X129449000Y-109551000D01*
X129449000Y-106249000D01*
X130551000Y-106249000D01*
X130551000Y-109551000D01*
G37*
G36*
X164551000Y-109551000D02*
G01*
X163449000Y-109551000D01*
X163449000Y-106249000D01*
X164551000Y-106249000D01*
X164551000Y-109551000D01*
G37*
G36*
X134551000Y-109551000D02*
G01*
X133449000Y-109551000D01*
X133449000Y-106249000D01*
X134551000Y-106249000D01*
X134551000Y-109551000D01*
G37*
G36*
X160551000Y-109551000D02*
G01*
X159449000Y-109551000D01*
X159449000Y-106249000D01*
X160551000Y-106249000D01*
X160551000Y-109551000D01*
G37*
G36*
X120551000Y-109551000D02*
G01*
X119449000Y-109551000D01*
X119449000Y-106249000D01*
X120551000Y-106249000D01*
X120551000Y-109551000D01*
G37*
G36*
X154551000Y-109551000D02*
G01*
X153449000Y-109551000D01*
X153449000Y-106249000D01*
X154551000Y-106249000D01*
X154551000Y-109551000D01*
G37*
G36*
X150551000Y-109551000D02*
G01*
X149449000Y-109551000D01*
X149449000Y-106249000D01*
X150551000Y-106249000D01*
X150551000Y-109551000D01*
G37*
G36*
X124551000Y-109551000D02*
G01*
X123449000Y-109551000D01*
X123449000Y-106249000D01*
X124551000Y-106249000D01*
X124551000Y-109551000D01*
G37*
G36*
X123051000Y-109501000D02*
G01*
X122449000Y-109501000D01*
X122449000Y-108499000D01*
X123051000Y-108499000D01*
X123051000Y-109501000D01*
G37*
G36*
X173051000Y-109501000D02*
G01*
X172449000Y-109501000D01*
X172449000Y-108499000D01*
X173051000Y-108499000D01*
X173051000Y-109501000D01*
G37*
G36*
X171551000Y-109501000D02*
G01*
X170949000Y-109501000D01*
X170949000Y-108499000D01*
X171551000Y-108499000D01*
X171551000Y-109501000D01*
G37*
G36*
X163051000Y-109501000D02*
G01*
X162449000Y-109501000D01*
X162449000Y-108499000D01*
X163051000Y-108499000D01*
X163051000Y-109501000D01*
G37*
G36*
X161551000Y-109501000D02*
G01*
X160949000Y-109501000D01*
X160949000Y-108499000D01*
X161551000Y-108499000D01*
X161551000Y-109501000D01*
G37*
G36*
X153051000Y-109501000D02*
G01*
X152449000Y-109501000D01*
X152449000Y-108499000D01*
X153051000Y-108499000D01*
X153051000Y-109501000D01*
G37*
G36*
X121551000Y-109501000D02*
G01*
X120949000Y-109501000D01*
X120949000Y-108499000D01*
X121551000Y-108499000D01*
X121551000Y-109501000D01*
G37*
G36*
X151551000Y-109501000D02*
G01*
X150949000Y-109501000D01*
X150949000Y-108499000D01*
X151551000Y-108499000D01*
X151551000Y-109501000D01*
G37*
G36*
X131551000Y-109501000D02*
G01*
X130949000Y-109501000D01*
X130949000Y-108499000D01*
X131551000Y-108499000D01*
X131551000Y-109501000D01*
G37*
G36*
X133051000Y-109501000D02*
G01*
X132449000Y-109501000D01*
X132449000Y-108499000D01*
X133051000Y-108499000D01*
X133051000Y-109501000D01*
G37*
G36*
X164551000Y-102751000D02*
G01*
X163449000Y-102751000D01*
X163449000Y-99449000D01*
X164551000Y-99449000D01*
X164551000Y-102751000D01*
G37*
G36*
X160551000Y-102751000D02*
G01*
X159449000Y-102751000D01*
X159449000Y-99449000D01*
X160551000Y-99449000D01*
X160551000Y-102751000D01*
G37*
G36*
X170551000Y-102751000D02*
G01*
X169449000Y-102751000D01*
X169449000Y-99449000D01*
X170551000Y-99449000D01*
X170551000Y-102751000D01*
G37*
G36*
X174551000Y-102751000D02*
G01*
X173449000Y-102751000D01*
X173449000Y-99449000D01*
X174551000Y-99449000D01*
X174551000Y-102751000D01*
G37*
G36*
X154551000Y-102751000D02*
G01*
X153449000Y-102751000D01*
X153449000Y-99449000D01*
X154551000Y-99449000D01*
X154551000Y-102751000D01*
G37*
G36*
X150551000Y-102751000D02*
G01*
X149449000Y-102751000D01*
X149449000Y-99449000D01*
X150551000Y-99449000D01*
X150551000Y-102751000D01*
G37*
G36*
X134551000Y-102751000D02*
G01*
X133449000Y-102751000D01*
X133449000Y-99449000D01*
X134551000Y-99449000D01*
X134551000Y-102751000D01*
G37*
G36*
X130551000Y-102751000D02*
G01*
X129449000Y-102751000D01*
X129449000Y-99449000D01*
X130551000Y-99449000D01*
X130551000Y-102751000D01*
G37*
G36*
X120551000Y-102751000D02*
G01*
X119449000Y-102751000D01*
X119449000Y-99449000D01*
X120551000Y-99449000D01*
X120551000Y-102751000D01*
G37*
G36*
X124551000Y-102751000D02*
G01*
X123449000Y-102751000D01*
X123449000Y-99449000D01*
X124551000Y-99449000D01*
X124551000Y-102751000D01*
G37*
G36*
X189551000Y-97051000D02*
G01*
X188449000Y-97051000D01*
X188449000Y-93749000D01*
X189551000Y-93749000D01*
X189551000Y-97051000D01*
G37*
G36*
X185551000Y-97051000D02*
G01*
X184449000Y-97051000D01*
X184449000Y-93749000D01*
X185551000Y-93749000D01*
X185551000Y-97051000D01*
G37*
G36*
X179551000Y-97051000D02*
G01*
X178449000Y-97051000D01*
X178449000Y-93749000D01*
X179551000Y-93749000D01*
X179551000Y-97051000D01*
G37*
G36*
X175551000Y-97051000D02*
G01*
X174449000Y-97051000D01*
X174449000Y-93749000D01*
X175551000Y-93749000D01*
X175551000Y-97051000D01*
G37*
G36*
X169551000Y-97051000D02*
G01*
X168449000Y-97051000D01*
X168449000Y-93749000D01*
X169551000Y-93749000D01*
X169551000Y-97051000D01*
G37*
G36*
X165551000Y-97051000D02*
G01*
X164449000Y-97051000D01*
X164449000Y-93749000D01*
X165551000Y-93749000D01*
X165551000Y-97051000D01*
G37*
G36*
X159551000Y-97051000D02*
G01*
X158449000Y-97051000D01*
X158449000Y-93749000D01*
X159551000Y-93749000D01*
X159551000Y-97051000D01*
G37*
G36*
X155551000Y-97051000D02*
G01*
X154449000Y-97051000D01*
X154449000Y-93749000D01*
X155551000Y-93749000D01*
X155551000Y-97051000D01*
G37*
G36*
X149551000Y-97051000D02*
G01*
X148449000Y-97051000D01*
X148449000Y-93749000D01*
X149551000Y-93749000D01*
X149551000Y-97051000D01*
G37*
G36*
X145551000Y-97051000D02*
G01*
X144449000Y-97051000D01*
X144449000Y-93749000D01*
X145551000Y-93749000D01*
X145551000Y-97051000D01*
G37*
G36*
X115551000Y-97051000D02*
G01*
X114449000Y-97051000D01*
X114449000Y-93749000D01*
X115551000Y-93749000D01*
X115551000Y-97051000D01*
G37*
G36*
X139551000Y-97051000D02*
G01*
X138449000Y-97051000D01*
X138449000Y-93749000D01*
X139551000Y-93749000D01*
X139551000Y-97051000D01*
G37*
G36*
X135551000Y-97051000D02*
G01*
X134449000Y-97051000D01*
X134449000Y-93749000D01*
X135551000Y-93749000D01*
X135551000Y-97051000D01*
G37*
G36*
X129551000Y-97051000D02*
G01*
X128449000Y-97051000D01*
X128449000Y-93749000D01*
X129551000Y-93749000D01*
X129551000Y-97051000D01*
G37*
G36*
X125551000Y-97051000D02*
G01*
X124449000Y-97051000D01*
X124449000Y-93749000D01*
X125551000Y-93749000D01*
X125551000Y-97051000D01*
G37*
G36*
X119551000Y-97051000D02*
G01*
X118449000Y-97051000D01*
X118449000Y-93749000D01*
X119551000Y-93749000D01*
X119551000Y-97051000D01*
G37*
G36*
X129551000Y-90251000D02*
G01*
X128449000Y-90251000D01*
X128449000Y-86949000D01*
X129551000Y-86949000D01*
X129551000Y-90251000D01*
G37*
G36*
X125551000Y-90251000D02*
G01*
X124449000Y-90251000D01*
X124449000Y-86949000D01*
X125551000Y-86949000D01*
X125551000Y-90251000D01*
G37*
G36*
X115551000Y-90251000D02*
G01*
X114449000Y-90251000D01*
X114449000Y-86949000D01*
X115551000Y-86949000D01*
X115551000Y-90251000D01*
G37*
G36*
X139551000Y-90251000D02*
G01*
X138449000Y-90251000D01*
X138449000Y-86949000D01*
X139551000Y-86949000D01*
X139551000Y-90251000D01*
G37*
G36*
X119551000Y-90251000D02*
G01*
X118449000Y-90251000D01*
X118449000Y-86949000D01*
X119551000Y-86949000D01*
X119551000Y-90251000D01*
G37*
G36*
X135551000Y-90251000D02*
G01*
X134449000Y-90251000D01*
X134449000Y-86949000D01*
X135551000Y-86949000D01*
X135551000Y-90251000D01*
G37*
G36*
X145551000Y-90251000D02*
G01*
X144449000Y-90251000D01*
X144449000Y-86949000D01*
X145551000Y-86949000D01*
X145551000Y-90251000D01*
G37*
G36*
X189551000Y-90251000D02*
G01*
X188449000Y-90251000D01*
X188449000Y-86949000D01*
X189551000Y-86949000D01*
X189551000Y-90251000D01*
G37*
G36*
X149551000Y-90251000D02*
G01*
X148449000Y-90251000D01*
X148449000Y-86949000D01*
X149551000Y-86949000D01*
X149551000Y-90251000D01*
G37*
G36*
X185551000Y-90251000D02*
G01*
X184449000Y-90251000D01*
X184449000Y-86949000D01*
X185551000Y-86949000D01*
X185551000Y-90251000D01*
G37*
G36*
X179551000Y-90251000D02*
G01*
X178449000Y-90251000D01*
X178449000Y-86949000D01*
X179551000Y-86949000D01*
X179551000Y-90251000D01*
G37*
G36*
X159551000Y-90251000D02*
G01*
X158449000Y-90251000D01*
X158449000Y-86949000D01*
X159551000Y-86949000D01*
X159551000Y-90251000D01*
G37*
G36*
X175551000Y-90251000D02*
G01*
X174449000Y-90251000D01*
X174449000Y-86949000D01*
X175551000Y-86949000D01*
X175551000Y-90251000D01*
G37*
G36*
X155551000Y-90251000D02*
G01*
X154449000Y-90251000D01*
X154449000Y-86949000D01*
X155551000Y-86949000D01*
X155551000Y-90251000D01*
G37*
G36*
X165551000Y-90251000D02*
G01*
X164449000Y-90251000D01*
X164449000Y-86949000D01*
X165551000Y-86949000D01*
X165551000Y-90251000D01*
G37*
G36*
X169551000Y-90251000D02*
G01*
X168449000Y-90251000D01*
X168449000Y-86949000D01*
X169551000Y-86949000D01*
X169551000Y-90251000D01*
G37*
G36*
X150813512Y-81103927D02*
G01*
X150962812Y-81133624D01*
X151126784Y-81201544D01*
X151274354Y-81300147D01*
X151399853Y-81425646D01*
X151498456Y-81573216D01*
X151566376Y-81737188D01*
X151601000Y-81911259D01*
X151601000Y-82088741D01*
X151566376Y-82262812D01*
X151498456Y-82426784D01*
X151399853Y-82574354D01*
X151274354Y-82699853D01*
X151126784Y-82798456D01*
X150962812Y-82866376D01*
X150813512Y-82896073D01*
X150788742Y-82901000D01*
X150611258Y-82901000D01*
X150586488Y-82896073D01*
X150437188Y-82866376D01*
X150273216Y-82798456D01*
X150125646Y-82699853D01*
X150000147Y-82574354D01*
X149901544Y-82426784D01*
X149833624Y-82262812D01*
X149799000Y-82088741D01*
X149799000Y-81911259D01*
X149833624Y-81737188D01*
X149901544Y-81573216D01*
X150000147Y-81425646D01*
X150125646Y-81300147D01*
X150273216Y-81201544D01*
X150437188Y-81133624D01*
X150586488Y-81103927D01*
X150611258Y-81099000D01*
X150788742Y-81099000D01*
X150813512Y-81103927D01*
G37*
G36*
X153353512Y-81103927D02*
G01*
X153502812Y-81133624D01*
X153666784Y-81201544D01*
X153814354Y-81300147D01*
X153939853Y-81425646D01*
X154038456Y-81573216D01*
X154106376Y-81737188D01*
X154141000Y-81911259D01*
X154141000Y-82088741D01*
X154106376Y-82262812D01*
X154038456Y-82426784D01*
X153939853Y-82574354D01*
X153814354Y-82699853D01*
X153666784Y-82798456D01*
X153502812Y-82866376D01*
X153353512Y-82896073D01*
X153328742Y-82901000D01*
X153151258Y-82901000D01*
X153126488Y-82896073D01*
X152977188Y-82866376D01*
X152813216Y-82798456D01*
X152665646Y-82699853D01*
X152540147Y-82574354D01*
X152441544Y-82426784D01*
X152373624Y-82262812D01*
X152339000Y-82088741D01*
X152339000Y-81911259D01*
X152373624Y-81737188D01*
X152441544Y-81573216D01*
X152540147Y-81425646D01*
X152665646Y-81300147D01*
X152813216Y-81201544D01*
X152977188Y-81133624D01*
X153126488Y-81103927D01*
X153151258Y-81099000D01*
X153328742Y-81099000D01*
X153353512Y-81103927D01*
G37*
G36*
X155893512Y-81103927D02*
G01*
X156042812Y-81133624D01*
X156206784Y-81201544D01*
X156354354Y-81300147D01*
X156479853Y-81425646D01*
X156578456Y-81573216D01*
X156646376Y-81737188D01*
X156681000Y-81911259D01*
X156681000Y-82088741D01*
X156646376Y-82262812D01*
X156578456Y-82426784D01*
X156479853Y-82574354D01*
X156354354Y-82699853D01*
X156206784Y-82798456D01*
X156042812Y-82866376D01*
X155893512Y-82896073D01*
X155868742Y-82901000D01*
X155691258Y-82901000D01*
X155666488Y-82896073D01*
X155517188Y-82866376D01*
X155353216Y-82798456D01*
X155205646Y-82699853D01*
X155080147Y-82574354D01*
X154981544Y-82426784D01*
X154913624Y-82262812D01*
X154879000Y-82088741D01*
X154879000Y-81911259D01*
X154913624Y-81737188D01*
X154981544Y-81573216D01*
X155080147Y-81425646D01*
X155205646Y-81300147D01*
X155353216Y-81201544D01*
X155517188Y-81133624D01*
X155666488Y-81103927D01*
X155691258Y-81099000D01*
X155868742Y-81099000D01*
X155893512Y-81103927D01*
G37*
G36*
X158433512Y-81103927D02*
G01*
X158582812Y-81133624D01*
X158746784Y-81201544D01*
X158894354Y-81300147D01*
X159019853Y-81425646D01*
X159118456Y-81573216D01*
X159186376Y-81737188D01*
X159221000Y-81911259D01*
X159221000Y-82088741D01*
X159186376Y-82262812D01*
X159118456Y-82426784D01*
X159019853Y-82574354D01*
X158894354Y-82699853D01*
X158746784Y-82798456D01*
X158582812Y-82866376D01*
X158433512Y-82896073D01*
X158408742Y-82901000D01*
X158231258Y-82901000D01*
X158206488Y-82896073D01*
X158057188Y-82866376D01*
X157893216Y-82798456D01*
X157745646Y-82699853D01*
X157620147Y-82574354D01*
X157521544Y-82426784D01*
X157453624Y-82262812D01*
X157419000Y-82088741D01*
X157419000Y-81911259D01*
X157453624Y-81737188D01*
X157521544Y-81573216D01*
X157620147Y-81425646D01*
X157745646Y-81300147D01*
X157893216Y-81201544D01*
X158057188Y-81133624D01*
X158206488Y-81103927D01*
X158231258Y-81099000D01*
X158408742Y-81099000D01*
X158433512Y-81103927D01*
G37*
G36*
X160973512Y-81103927D02*
G01*
X161122812Y-81133624D01*
X161286784Y-81201544D01*
X161434354Y-81300147D01*
X161559853Y-81425646D01*
X161658456Y-81573216D01*
X161726376Y-81737188D01*
X161761000Y-81911259D01*
X161761000Y-82088741D01*
X161726376Y-82262812D01*
X161658456Y-82426784D01*
X161559853Y-82574354D01*
X161434354Y-82699853D01*
X161286784Y-82798456D01*
X161122812Y-82866376D01*
X160973512Y-82896073D01*
X160948742Y-82901000D01*
X160771258Y-82901000D01*
X160746488Y-82896073D01*
X160597188Y-82866376D01*
X160433216Y-82798456D01*
X160285646Y-82699853D01*
X160160147Y-82574354D01*
X160061544Y-82426784D01*
X159993624Y-82262812D01*
X159959000Y-82088741D01*
X159959000Y-81911259D01*
X159993624Y-81737188D01*
X160061544Y-81573216D01*
X160160147Y-81425646D01*
X160285646Y-81300147D01*
X160433216Y-81201544D01*
X160597188Y-81133624D01*
X160746488Y-81103927D01*
X160771258Y-81099000D01*
X160948742Y-81099000D01*
X160973512Y-81103927D01*
G37*
G36*
X163513512Y-81103927D02*
G01*
X163662812Y-81133624D01*
X163826784Y-81201544D01*
X163974354Y-81300147D01*
X164099853Y-81425646D01*
X164198456Y-81573216D01*
X164266376Y-81737188D01*
X164301000Y-81911259D01*
X164301000Y-82088741D01*
X164266376Y-82262812D01*
X164198456Y-82426784D01*
X164099853Y-82574354D01*
X163974354Y-82699853D01*
X163826784Y-82798456D01*
X163662812Y-82866376D01*
X163513512Y-82896073D01*
X163488742Y-82901000D01*
X163311258Y-82901000D01*
X163286488Y-82896073D01*
X163137188Y-82866376D01*
X162973216Y-82798456D01*
X162825646Y-82699853D01*
X162700147Y-82574354D01*
X162601544Y-82426784D01*
X162533624Y-82262812D01*
X162499000Y-82088741D01*
X162499000Y-81911259D01*
X162533624Y-81737188D01*
X162601544Y-81573216D01*
X162700147Y-81425646D01*
X162825646Y-81300147D01*
X162973216Y-81201544D01*
X163137188Y-81133624D01*
X163286488Y-81103927D01*
X163311258Y-81099000D01*
X163488742Y-81099000D01*
X163513512Y-81103927D01*
G37*
G36*
X166053512Y-81103927D02*
G01*
X166202812Y-81133624D01*
X166366784Y-81201544D01*
X166514354Y-81300147D01*
X166639853Y-81425646D01*
X166738456Y-81573216D01*
X166806376Y-81737188D01*
X166841000Y-81911259D01*
X166841000Y-82088741D01*
X166806376Y-82262812D01*
X166738456Y-82426784D01*
X166639853Y-82574354D01*
X166514354Y-82699853D01*
X166366784Y-82798456D01*
X166202812Y-82866376D01*
X166053512Y-82896073D01*
X166028742Y-82901000D01*
X165851258Y-82901000D01*
X165826488Y-82896073D01*
X165677188Y-82866376D01*
X165513216Y-82798456D01*
X165365646Y-82699853D01*
X165240147Y-82574354D01*
X165141544Y-82426784D01*
X165073624Y-82262812D01*
X165039000Y-82088741D01*
X165039000Y-81911259D01*
X165073624Y-81737188D01*
X165141544Y-81573216D01*
X165240147Y-81425646D01*
X165365646Y-81300147D01*
X165513216Y-81201544D01*
X165677188Y-81133624D01*
X165826488Y-81103927D01*
X165851258Y-81099000D01*
X166028742Y-81099000D01*
X166053512Y-81103927D01*
G37*
G36*
X148273512Y-81103927D02*
G01*
X148422812Y-81133624D01*
X148586784Y-81201544D01*
X148734354Y-81300147D01*
X148859853Y-81425646D01*
X148958456Y-81573216D01*
X149026376Y-81737188D01*
X149061000Y-81911259D01*
X149061000Y-82088741D01*
X149026376Y-82262812D01*
X148958456Y-82426784D01*
X148859853Y-82574354D01*
X148734354Y-82699853D01*
X148586784Y-82798456D01*
X148422812Y-82866376D01*
X148273512Y-82896073D01*
X148248742Y-82901000D01*
X148071258Y-82901000D01*
X148046488Y-82896073D01*
X147897188Y-82866376D01*
X147733216Y-82798456D01*
X147585646Y-82699853D01*
X147460147Y-82574354D01*
X147361544Y-82426784D01*
X147293624Y-82262812D01*
X147259000Y-82088741D01*
X147259000Y-81911259D01*
X147293624Y-81737188D01*
X147361544Y-81573216D01*
X147460147Y-81425646D01*
X147585646Y-81300147D01*
X147733216Y-81201544D01*
X147897188Y-81133624D01*
X148046488Y-81103927D01*
X148071258Y-81099000D01*
X148248742Y-81099000D01*
X148273512Y-81103927D01*
G37*
G36*
X145733512Y-81103927D02*
G01*
X145882812Y-81133624D01*
X146046784Y-81201544D01*
X146194354Y-81300147D01*
X146319853Y-81425646D01*
X146418456Y-81573216D01*
X146486376Y-81737188D01*
X146521000Y-81911259D01*
X146521000Y-82088741D01*
X146486376Y-82262812D01*
X146418456Y-82426784D01*
X146319853Y-82574354D01*
X146194354Y-82699853D01*
X146046784Y-82798456D01*
X145882812Y-82866376D01*
X145733512Y-82896073D01*
X145708742Y-82901000D01*
X145531258Y-82901000D01*
X145506488Y-82896073D01*
X145357188Y-82866376D01*
X145193216Y-82798456D01*
X145045646Y-82699853D01*
X144920147Y-82574354D01*
X144821544Y-82426784D01*
X144753624Y-82262812D01*
X144719000Y-82088741D01*
X144719000Y-81911259D01*
X144753624Y-81737188D01*
X144821544Y-81573216D01*
X144920147Y-81425646D01*
X145045646Y-81300147D01*
X145193216Y-81201544D01*
X145357188Y-81133624D01*
X145506488Y-81103927D01*
X145531258Y-81099000D01*
X145708742Y-81099000D01*
X145733512Y-81103927D01*
G37*
G36*
X143193512Y-81103927D02*
G01*
X143342812Y-81133624D01*
X143506784Y-81201544D01*
X143654354Y-81300147D01*
X143779853Y-81425646D01*
X143878456Y-81573216D01*
X143946376Y-81737188D01*
X143981000Y-81911259D01*
X143981000Y-82088741D01*
X143946376Y-82262812D01*
X143878456Y-82426784D01*
X143779853Y-82574354D01*
X143654354Y-82699853D01*
X143506784Y-82798456D01*
X143342812Y-82866376D01*
X143193512Y-82896073D01*
X143168742Y-82901000D01*
X142991258Y-82901000D01*
X142966488Y-82896073D01*
X142817188Y-82866376D01*
X142653216Y-82798456D01*
X142505646Y-82699853D01*
X142380147Y-82574354D01*
X142281544Y-82426784D01*
X142213624Y-82262812D01*
X142179000Y-82088741D01*
X142179000Y-81911259D01*
X142213624Y-81737188D01*
X142281544Y-81573216D01*
X142380147Y-81425646D01*
X142505646Y-81300147D01*
X142653216Y-81201544D01*
X142817188Y-81133624D01*
X142966488Y-81103927D01*
X142991258Y-81099000D01*
X143168742Y-81099000D01*
X143193512Y-81103927D01*
G37*
G36*
X140653512Y-81103927D02*
G01*
X140802812Y-81133624D01*
X140966784Y-81201544D01*
X141114354Y-81300147D01*
X141239853Y-81425646D01*
X141338456Y-81573216D01*
X141406376Y-81737188D01*
X141441000Y-81911259D01*
X141441000Y-82088741D01*
X141406376Y-82262812D01*
X141338456Y-82426784D01*
X141239853Y-82574354D01*
X141114354Y-82699853D01*
X140966784Y-82798456D01*
X140802812Y-82866376D01*
X140653512Y-82896073D01*
X140628742Y-82901000D01*
X140451258Y-82901000D01*
X140426488Y-82896073D01*
X140277188Y-82866376D01*
X140113216Y-82798456D01*
X139965646Y-82699853D01*
X139840147Y-82574354D01*
X139741544Y-82426784D01*
X139673624Y-82262812D01*
X139639000Y-82088741D01*
X139639000Y-81911259D01*
X139673624Y-81737188D01*
X139741544Y-81573216D01*
X139840147Y-81425646D01*
X139965646Y-81300147D01*
X140113216Y-81201544D01*
X140277188Y-81133624D01*
X140426488Y-81103927D01*
X140451258Y-81099000D01*
X140628742Y-81099000D01*
X140653512Y-81103927D01*
G37*
G36*
X138901000Y-82901000D02*
G01*
X137099000Y-82901000D01*
X137099000Y-81099000D01*
X138901000Y-81099000D01*
X138901000Y-82901000D01*
G37*
M02*
