G04 #@! TF.GenerationSoftware,KiCad,Pcbnew,(5.1.5-0-10_14)*
G04 #@! TF.CreationDate,2021-02-06T16:20:19+00:00*
G04 #@! TF.ProjectId,keyboard,6b657962-6f61-4726-942e-6b696361645f,rev?*
G04 #@! TF.SameCoordinates,Original*
G04 #@! TF.FileFunction,Copper,L1,Top*
G04 #@! TF.FilePolarity,Positive*
%FSLAX46Y46*%
G04 Gerber Fmt 4.6, Leading zero omitted, Abs format (unit mm)*
G04 Created by KiCad (PCBNEW (5.1.5-0-10_14)) date 2021-02-06 16:20:19*
%MOMM*%
%LPD*%
G04 APERTURE LIST*
%ADD10O,1.700000X1.700000*%
%ADD11R,1.700000X1.700000*%
%ADD12R,1.000000X3.200000*%
%ADD13R,0.500000X0.900000*%
G04 APERTURE END LIST*
D10*
X165940000Y-82000000D03*
X163400000Y-82000000D03*
X160860000Y-82000000D03*
X158320000Y-82000000D03*
X155780000Y-82000000D03*
X153240000Y-82000000D03*
X150700000Y-82000000D03*
X148160000Y-82000000D03*
X145620000Y-82000000D03*
X143080000Y-82000000D03*
X140540000Y-82000000D03*
D11*
X138000000Y-82000000D03*
D12*
X185000000Y-113600000D03*
X185000000Y-120400000D03*
X189000000Y-113600000D03*
X189000000Y-120400000D03*
X179000000Y-120400000D03*
X179000000Y-113600000D03*
X175000000Y-120400000D03*
X175000000Y-113600000D03*
X174000000Y-107900000D03*
X174000000Y-101100000D03*
X170000000Y-107900000D03*
X170000000Y-101100000D03*
X165000000Y-113600000D03*
X165000000Y-120400000D03*
X169000000Y-113600000D03*
X169000000Y-120400000D03*
X164000000Y-107900000D03*
X164000000Y-101100000D03*
X160000000Y-107900000D03*
X160000000Y-101100000D03*
X155000000Y-113600000D03*
X155000000Y-120400000D03*
X159000000Y-113600000D03*
X159000000Y-120400000D03*
X154000000Y-107900000D03*
X154000000Y-101100000D03*
X150000000Y-107900000D03*
X150000000Y-101100000D03*
X145000000Y-113600000D03*
X145000000Y-120400000D03*
X149000000Y-113600000D03*
X149000000Y-120400000D03*
X139000000Y-120400000D03*
X139000000Y-113600000D03*
X135000000Y-120400000D03*
X135000000Y-113600000D03*
X130000000Y-101100000D03*
X130000000Y-107900000D03*
X134000000Y-101100000D03*
X134000000Y-107900000D03*
X129000000Y-120400000D03*
X129000000Y-113600000D03*
X125000000Y-120400000D03*
X125000000Y-113600000D03*
X120000000Y-101100000D03*
X120000000Y-107900000D03*
X124000000Y-101100000D03*
X124000000Y-107900000D03*
X119000000Y-120400000D03*
X119000000Y-113600000D03*
X115000000Y-120400000D03*
X115000000Y-113600000D03*
X119000000Y-95400000D03*
X119000000Y-88600000D03*
X115000000Y-95400000D03*
X115000000Y-88600000D03*
X125000000Y-88600000D03*
X125000000Y-95400000D03*
X129000000Y-88600000D03*
X129000000Y-95400000D03*
X139000000Y-95400000D03*
X139000000Y-88600000D03*
X135000000Y-95400000D03*
X135000000Y-88600000D03*
X145000000Y-88600000D03*
X145000000Y-95400000D03*
X149000000Y-88600000D03*
X149000000Y-95400000D03*
X159000000Y-95400000D03*
X159000000Y-88600000D03*
X155000000Y-95400000D03*
X155000000Y-88600000D03*
X165000000Y-88600000D03*
X165000000Y-95400000D03*
X169000000Y-88600000D03*
X169000000Y-95400000D03*
X179000000Y-95400000D03*
X179000000Y-88600000D03*
X175000000Y-95400000D03*
X175000000Y-88600000D03*
X185000000Y-88600000D03*
X185000000Y-95400000D03*
X189000000Y-88600000D03*
X189000000Y-95400000D03*
D13*
X117750000Y-121500000D03*
X116250000Y-121500000D03*
X122750000Y-109000000D03*
X121250000Y-109000000D03*
X126250000Y-121500000D03*
X127750000Y-121500000D03*
X132750000Y-109000000D03*
X131250000Y-109000000D03*
X136250000Y-121500000D03*
X137750000Y-121500000D03*
X147750000Y-121500000D03*
X146250000Y-121500000D03*
X151250000Y-109000000D03*
X152750000Y-109000000D03*
X157750000Y-121500000D03*
X156250000Y-121500000D03*
X161250000Y-109000000D03*
X162750000Y-109000000D03*
X167750000Y-121500000D03*
X166250000Y-121500000D03*
X171250000Y-109000000D03*
X172750000Y-109000000D03*
X177750000Y-121500000D03*
X176250000Y-121500000D03*
X186250000Y-121500000D03*
X187750000Y-121500000D03*
X187750000Y-112500000D03*
X186250000Y-112500000D03*
X116250000Y-112500000D03*
X117750000Y-112500000D03*
M02*
