G04 #@! TF.GenerationSoftware,KiCad,Pcbnew,(5.1.5-0-10_14)*
G04 #@! TF.CreationDate,2021-02-06T16:20:19+00:00*
G04 #@! TF.ProjectId,keyboard,6b657962-6f61-4726-942e-6b696361645f,rev?*
G04 #@! TF.SameCoordinates,Original*
G04 #@! TF.FileFunction,Legend,Top*
G04 #@! TF.FilePolarity,Positive*
%FSLAX46Y46*%
G04 Gerber Fmt 4.6, Leading zero omitted, Abs format (unit mm)*
G04 Created by KiCad (PCBNEW (5.1.5-0-10_14)) date 2021-02-06 16:20:19*
%MOMM*%
%LPD*%
G04 APERTURE LIST*
%ADD10C,0.150000*%
%ADD11C,0.120000*%
G04 APERTURE END LIST*
D10*
X163083333Y-84950000D02*
X163183333Y-84983333D01*
X163216666Y-85016666D01*
X163250000Y-85083333D01*
X163250000Y-85183333D01*
X163216666Y-85250000D01*
X163183333Y-85283333D01*
X163116666Y-85316666D01*
X162850000Y-85316666D01*
X162850000Y-84616666D01*
X163083333Y-84616666D01*
X163150000Y-84650000D01*
X163183333Y-84683333D01*
X163216666Y-84750000D01*
X163216666Y-84816666D01*
X163183333Y-84883333D01*
X163150000Y-84916666D01*
X163083333Y-84950000D01*
X162850000Y-84950000D01*
X163550000Y-84616666D02*
X163550000Y-85183333D01*
X163583333Y-85250000D01*
X163616666Y-85283333D01*
X163683333Y-85316666D01*
X163816666Y-85316666D01*
X163883333Y-85283333D01*
X163916666Y-85250000D01*
X163950000Y-85183333D01*
X163950000Y-84616666D01*
X164183333Y-84616666D02*
X164583333Y-84616666D01*
X164383333Y-85316666D02*
X164383333Y-84616666D01*
X164716666Y-84616666D02*
X165116666Y-84616666D01*
X164916666Y-85316666D02*
X164916666Y-84616666D01*
X165483333Y-84616666D02*
X165616666Y-84616666D01*
X165683333Y-84650000D01*
X165750000Y-84716666D01*
X165783333Y-84850000D01*
X165783333Y-85083333D01*
X165750000Y-85216666D01*
X165683333Y-85283333D01*
X165616666Y-85316666D01*
X165483333Y-85316666D01*
X165416666Y-85283333D01*
X165350000Y-85216666D01*
X165316666Y-85083333D01*
X165316666Y-84850000D01*
X165350000Y-84716666D01*
X165416666Y-84650000D01*
X165483333Y-84616666D01*
X166083333Y-85316666D02*
X166083333Y-84616666D01*
X166483333Y-85316666D01*
X166483333Y-84616666D01*
X166783333Y-85283333D02*
X166883333Y-85316666D01*
X167050000Y-85316666D01*
X167116666Y-85283333D01*
X167150000Y-85250000D01*
X167183333Y-85183333D01*
X167183333Y-85116666D01*
X167150000Y-85050000D01*
X167116666Y-85016666D01*
X167050000Y-84983333D01*
X166916666Y-84950000D01*
X166850000Y-84916666D01*
X166816666Y-84883333D01*
X166783333Y-84816666D01*
X166783333Y-84750000D01*
X166816666Y-84683333D01*
X166850000Y-84650000D01*
X166916666Y-84616666D01*
X167083333Y-84616666D01*
X167183333Y-84650000D01*
X136866666Y-84616666D02*
X137100000Y-85316666D01*
X137333333Y-84616666D01*
X137966666Y-85250000D02*
X137933333Y-85283333D01*
X137833333Y-85316666D01*
X137766666Y-85316666D01*
X137666666Y-85283333D01*
X137600000Y-85216666D01*
X137566666Y-85150000D01*
X137533333Y-85016666D01*
X137533333Y-84916666D01*
X137566666Y-84783333D01*
X137600000Y-84716666D01*
X137666666Y-84650000D01*
X137766666Y-84616666D01*
X137833333Y-84616666D01*
X137933333Y-84650000D01*
X137966666Y-84683333D01*
X138666666Y-85250000D02*
X138633333Y-85283333D01*
X138533333Y-85316666D01*
X138466666Y-85316666D01*
X138366666Y-85283333D01*
X138300000Y-85216666D01*
X138266666Y-85150000D01*
X138233333Y-85016666D01*
X138233333Y-84916666D01*
X138266666Y-84783333D01*
X138300000Y-84716666D01*
X138366666Y-84650000D01*
X138466666Y-84616666D01*
X138533333Y-84616666D01*
X138633333Y-84650000D01*
X138666666Y-84683333D01*
X139866666Y-84650000D02*
X139800000Y-84616666D01*
X139700000Y-84616666D01*
X139600000Y-84650000D01*
X139533333Y-84716666D01*
X139500000Y-84783333D01*
X139466666Y-84916666D01*
X139466666Y-85016666D01*
X139500000Y-85150000D01*
X139533333Y-85216666D01*
X139600000Y-85283333D01*
X139700000Y-85316666D01*
X139766666Y-85316666D01*
X139866666Y-85283333D01*
X139900000Y-85250000D01*
X139900000Y-85016666D01*
X139766666Y-85016666D01*
X140200000Y-85316666D02*
X140200000Y-84616666D01*
X140600000Y-85316666D01*
X140600000Y-84616666D01*
X140933333Y-85316666D02*
X140933333Y-84616666D01*
X141100000Y-84616666D01*
X141200000Y-84650000D01*
X141266666Y-84716666D01*
X141300000Y-84783333D01*
X141333333Y-84916666D01*
X141333333Y-85016666D01*
X141300000Y-85150000D01*
X141266666Y-85216666D01*
X141200000Y-85283333D01*
X141100000Y-85316666D01*
X140933333Y-85316666D01*
X142166666Y-85316666D02*
X142166666Y-84616666D01*
X142566666Y-85316666D02*
X142266666Y-84916666D01*
X142566666Y-84616666D02*
X142166666Y-85016666D01*
X142866666Y-84950000D02*
X143100000Y-84950000D01*
X143200000Y-85316666D02*
X142866666Y-85316666D01*
X142866666Y-84616666D01*
X143200000Y-84616666D01*
X143633333Y-84983333D02*
X143633333Y-85316666D01*
X143400000Y-84616666D02*
X143633333Y-84983333D01*
X143866666Y-84616666D01*
X145033333Y-85250000D02*
X145000000Y-85283333D01*
X144900000Y-85316666D01*
X144833333Y-85316666D01*
X144733333Y-85283333D01*
X144666666Y-85216666D01*
X144633333Y-85150000D01*
X144600000Y-85016666D01*
X144600000Y-84916666D01*
X144633333Y-84783333D01*
X144666666Y-84716666D01*
X144733333Y-84650000D01*
X144833333Y-84616666D01*
X144900000Y-84616666D01*
X145000000Y-84650000D01*
X145033333Y-84683333D01*
X145466666Y-84616666D02*
X145600000Y-84616666D01*
X145666666Y-84650000D01*
X145733333Y-84716666D01*
X145766666Y-84850000D01*
X145766666Y-85083333D01*
X145733333Y-85216666D01*
X145666666Y-85283333D01*
X145600000Y-85316666D01*
X145466666Y-85316666D01*
X145400000Y-85283333D01*
X145333333Y-85216666D01*
X145300000Y-85083333D01*
X145300000Y-84850000D01*
X145333333Y-84716666D01*
X145400000Y-84650000D01*
X145466666Y-84616666D01*
X146066666Y-85316666D02*
X146066666Y-84616666D01*
X146300000Y-85116666D01*
X146533333Y-84616666D01*
X146533333Y-85316666D01*
D11*
X136670000Y-83330000D02*
X136670000Y-82000000D01*
X138000000Y-83330000D02*
X136670000Y-83330000D01*
X139270000Y-83330000D02*
X139270000Y-80670000D01*
X139270000Y-80670000D02*
X167270000Y-80670000D01*
X139270000Y-83330000D02*
X167270000Y-83330000D01*
X167270000Y-83330000D02*
X167270000Y-80670000D01*
X188400000Y-113400000D02*
X185600000Y-113400000D01*
X190100000Y-113400000D02*
X189600000Y-113400000D01*
X190100000Y-120600000D02*
X190100000Y-113400000D01*
X189600000Y-120600000D02*
X190100000Y-120600000D01*
X185600000Y-120600000D02*
X188400000Y-120600000D01*
X183900000Y-113400000D02*
X184400000Y-113400000D01*
X183900000Y-120600000D02*
X183900000Y-113400000D01*
X184400000Y-120600000D02*
X183900000Y-120600000D01*
X174400000Y-120600000D02*
X173900000Y-120600000D01*
X173900000Y-120600000D02*
X173900000Y-113400000D01*
X173900000Y-113400000D02*
X174400000Y-113400000D01*
X175600000Y-120600000D02*
X178400000Y-120600000D01*
X179600000Y-120600000D02*
X180100000Y-120600000D01*
X180100000Y-120600000D02*
X180100000Y-113400000D01*
X180100000Y-113400000D02*
X179600000Y-113400000D01*
X178400000Y-113400000D02*
X175600000Y-113400000D01*
X169400000Y-108100000D02*
X168900000Y-108100000D01*
X168900000Y-108100000D02*
X168900000Y-100900000D01*
X168900000Y-100900000D02*
X169400000Y-100900000D01*
X170600000Y-108100000D02*
X173400000Y-108100000D01*
X174600000Y-108100000D02*
X175100000Y-108100000D01*
X175100000Y-108100000D02*
X175100000Y-100900000D01*
X175100000Y-100900000D02*
X174600000Y-100900000D01*
X173400000Y-100900000D02*
X170600000Y-100900000D01*
X168400000Y-113400000D02*
X165600000Y-113400000D01*
X170100000Y-113400000D02*
X169600000Y-113400000D01*
X170100000Y-120600000D02*
X170100000Y-113400000D01*
X169600000Y-120600000D02*
X170100000Y-120600000D01*
X165600000Y-120600000D02*
X168400000Y-120600000D01*
X163900000Y-113400000D02*
X164400000Y-113400000D01*
X163900000Y-120600000D02*
X163900000Y-113400000D01*
X164400000Y-120600000D02*
X163900000Y-120600000D01*
X159400000Y-108100000D02*
X158900000Y-108100000D01*
X158900000Y-108100000D02*
X158900000Y-100900000D01*
X158900000Y-100900000D02*
X159400000Y-100900000D01*
X160600000Y-108100000D02*
X163400000Y-108100000D01*
X164600000Y-108100000D02*
X165100000Y-108100000D01*
X165100000Y-108100000D02*
X165100000Y-100900000D01*
X165100000Y-100900000D02*
X164600000Y-100900000D01*
X163400000Y-100900000D02*
X160600000Y-100900000D01*
X158400000Y-113400000D02*
X155600000Y-113400000D01*
X160100000Y-113400000D02*
X159600000Y-113400000D01*
X160100000Y-120600000D02*
X160100000Y-113400000D01*
X159600000Y-120600000D02*
X160100000Y-120600000D01*
X155600000Y-120600000D02*
X158400000Y-120600000D01*
X153900000Y-113400000D02*
X154400000Y-113400000D01*
X153900000Y-120600000D02*
X153900000Y-113400000D01*
X154400000Y-120600000D02*
X153900000Y-120600000D01*
X149400000Y-108100000D02*
X148900000Y-108100000D01*
X148900000Y-108100000D02*
X148900000Y-100900000D01*
X148900000Y-100900000D02*
X149400000Y-100900000D01*
X150600000Y-108100000D02*
X153400000Y-108100000D01*
X154600000Y-108100000D02*
X155100000Y-108100000D01*
X155100000Y-108100000D02*
X155100000Y-100900000D01*
X155100000Y-100900000D02*
X154600000Y-100900000D01*
X153400000Y-100900000D02*
X150600000Y-100900000D01*
X148400000Y-113400000D02*
X145600000Y-113400000D01*
X150100000Y-113400000D02*
X149600000Y-113400000D01*
X150100000Y-120600000D02*
X150100000Y-113400000D01*
X149600000Y-120600000D02*
X150100000Y-120600000D01*
X145600000Y-120600000D02*
X148400000Y-120600000D01*
X143900000Y-113400000D02*
X144400000Y-113400000D01*
X143900000Y-120600000D02*
X143900000Y-113400000D01*
X144400000Y-120600000D02*
X143900000Y-120600000D01*
X134400000Y-120600000D02*
X133900000Y-120600000D01*
X133900000Y-120600000D02*
X133900000Y-113400000D01*
X133900000Y-113400000D02*
X134400000Y-113400000D01*
X135600000Y-120600000D02*
X138400000Y-120600000D01*
X139600000Y-120600000D02*
X140100000Y-120600000D01*
X140100000Y-120600000D02*
X140100000Y-113400000D01*
X140100000Y-113400000D02*
X139600000Y-113400000D01*
X138400000Y-113400000D02*
X135600000Y-113400000D01*
X133400000Y-100900000D02*
X130600000Y-100900000D01*
X135100000Y-100900000D02*
X134600000Y-100900000D01*
X135100000Y-108100000D02*
X135100000Y-100900000D01*
X134600000Y-108100000D02*
X135100000Y-108100000D01*
X130600000Y-108100000D02*
X133400000Y-108100000D01*
X128900000Y-100900000D02*
X129400000Y-100900000D01*
X128900000Y-108100000D02*
X128900000Y-100900000D01*
X129400000Y-108100000D02*
X128900000Y-108100000D01*
X124400000Y-120600000D02*
X123900000Y-120600000D01*
X123900000Y-120600000D02*
X123900000Y-113400000D01*
X123900000Y-113400000D02*
X124400000Y-113400000D01*
X125600000Y-120600000D02*
X128400000Y-120600000D01*
X129600000Y-120600000D02*
X130100000Y-120600000D01*
X130100000Y-120600000D02*
X130100000Y-113400000D01*
X130100000Y-113400000D02*
X129600000Y-113400000D01*
X128400000Y-113400000D02*
X125600000Y-113400000D01*
X123400000Y-100900000D02*
X120600000Y-100900000D01*
X125100000Y-100900000D02*
X124600000Y-100900000D01*
X125100000Y-108100000D02*
X125100000Y-100900000D01*
X124600000Y-108100000D02*
X125100000Y-108100000D01*
X120600000Y-108100000D02*
X123400000Y-108100000D01*
X118900000Y-100900000D02*
X119400000Y-100900000D01*
X118900000Y-108100000D02*
X118900000Y-100900000D01*
X119400000Y-108100000D02*
X118900000Y-108100000D01*
X114400000Y-120600000D02*
X113900000Y-120600000D01*
X113900000Y-120600000D02*
X113900000Y-113400000D01*
X113900000Y-113400000D02*
X114400000Y-113400000D01*
X115600000Y-120600000D02*
X118400000Y-120600000D01*
X119600000Y-120600000D02*
X120100000Y-120600000D01*
X120100000Y-120600000D02*
X120100000Y-113400000D01*
X120100000Y-113400000D02*
X119600000Y-113400000D01*
X118400000Y-113400000D02*
X115600000Y-113400000D01*
X114400000Y-95600000D02*
X113900000Y-95600000D01*
X113900000Y-95600000D02*
X113900000Y-88400000D01*
X113900000Y-88400000D02*
X114400000Y-88400000D01*
X115600000Y-95600000D02*
X118400000Y-95600000D01*
X119600000Y-95600000D02*
X120100000Y-95600000D01*
X120100000Y-95600000D02*
X120100000Y-88400000D01*
X120100000Y-88400000D02*
X119600000Y-88400000D01*
X118400000Y-88400000D02*
X115600000Y-88400000D01*
X128400000Y-88400000D02*
X125600000Y-88400000D01*
X130100000Y-88400000D02*
X129600000Y-88400000D01*
X130100000Y-95600000D02*
X130100000Y-88400000D01*
X129600000Y-95600000D02*
X130100000Y-95600000D01*
X125600000Y-95600000D02*
X128400000Y-95600000D01*
X123900000Y-88400000D02*
X124400000Y-88400000D01*
X123900000Y-95600000D02*
X123900000Y-88400000D01*
X124400000Y-95600000D02*
X123900000Y-95600000D01*
X134400000Y-95600000D02*
X133900000Y-95600000D01*
X133900000Y-95600000D02*
X133900000Y-88400000D01*
X133900000Y-88400000D02*
X134400000Y-88400000D01*
X135600000Y-95600000D02*
X138400000Y-95600000D01*
X139600000Y-95600000D02*
X140100000Y-95600000D01*
X140100000Y-95600000D02*
X140100000Y-88400000D01*
X140100000Y-88400000D02*
X139600000Y-88400000D01*
X138400000Y-88400000D02*
X135600000Y-88400000D01*
X148400000Y-88400000D02*
X145600000Y-88400000D01*
X150100000Y-88400000D02*
X149600000Y-88400000D01*
X150100000Y-95600000D02*
X150100000Y-88400000D01*
X149600000Y-95600000D02*
X150100000Y-95600000D01*
X145600000Y-95600000D02*
X148400000Y-95600000D01*
X143900000Y-88400000D02*
X144400000Y-88400000D01*
X143900000Y-95600000D02*
X143900000Y-88400000D01*
X144400000Y-95600000D02*
X143900000Y-95600000D01*
X154400000Y-95600000D02*
X153900000Y-95600000D01*
X153900000Y-95600000D02*
X153900000Y-88400000D01*
X153900000Y-88400000D02*
X154400000Y-88400000D01*
X155600000Y-95600000D02*
X158400000Y-95600000D01*
X159600000Y-95600000D02*
X160100000Y-95600000D01*
X160100000Y-95600000D02*
X160100000Y-88400000D01*
X160100000Y-88400000D02*
X159600000Y-88400000D01*
X158400000Y-88400000D02*
X155600000Y-88400000D01*
X168400000Y-88400000D02*
X165600000Y-88400000D01*
X170100000Y-88400000D02*
X169600000Y-88400000D01*
X170100000Y-95600000D02*
X170100000Y-88400000D01*
X169600000Y-95600000D02*
X170100000Y-95600000D01*
X165600000Y-95600000D02*
X168400000Y-95600000D01*
X163900000Y-88400000D02*
X164400000Y-88400000D01*
X163900000Y-95600000D02*
X163900000Y-88400000D01*
X164400000Y-95600000D02*
X163900000Y-95600000D01*
X174400000Y-95600000D02*
X173900000Y-95600000D01*
X173900000Y-95600000D02*
X173900000Y-88400000D01*
X173900000Y-88400000D02*
X174400000Y-88400000D01*
X175600000Y-95600000D02*
X178400000Y-95600000D01*
X179600000Y-95600000D02*
X180100000Y-95600000D01*
X180100000Y-95600000D02*
X180100000Y-88400000D01*
X180100000Y-88400000D02*
X179600000Y-88400000D01*
X178400000Y-88400000D02*
X175600000Y-88400000D01*
X188400000Y-88400000D02*
X185600000Y-88400000D01*
X190100000Y-88400000D02*
X189600000Y-88400000D01*
X190100000Y-95600000D02*
X190100000Y-88400000D01*
X189600000Y-95600000D02*
X190100000Y-95600000D01*
X185600000Y-95600000D02*
X188400000Y-95600000D01*
X183900000Y-88400000D02*
X184400000Y-88400000D01*
X183900000Y-95600000D02*
X183900000Y-88400000D01*
X184400000Y-95600000D02*
X183900000Y-95600000D01*
X116500000Y-120820000D02*
X117500000Y-120820000D01*
X117500000Y-122180000D02*
X116500000Y-122180000D01*
X121500000Y-108320000D02*
X122500000Y-108320000D01*
X122500000Y-109680000D02*
X121500000Y-109680000D01*
X127500000Y-122180000D02*
X126500000Y-122180000D01*
X126500000Y-120820000D02*
X127500000Y-120820000D01*
X131500000Y-108320000D02*
X132500000Y-108320000D01*
X132500000Y-109680000D02*
X131500000Y-109680000D01*
X137500000Y-122180000D02*
X136500000Y-122180000D01*
X136500000Y-120820000D02*
X137500000Y-120820000D01*
X146500000Y-120820000D02*
X147500000Y-120820000D01*
X147500000Y-122180000D02*
X146500000Y-122180000D01*
X152500000Y-109680000D02*
X151500000Y-109680000D01*
X151500000Y-108320000D02*
X152500000Y-108320000D01*
X156500000Y-120820000D02*
X157500000Y-120820000D01*
X157500000Y-122180000D02*
X156500000Y-122180000D01*
X162500000Y-109680000D02*
X161500000Y-109680000D01*
X161500000Y-108320000D02*
X162500000Y-108320000D01*
X166500000Y-120820000D02*
X167500000Y-120820000D01*
X167500000Y-122180000D02*
X166500000Y-122180000D01*
X172500000Y-109680000D02*
X171500000Y-109680000D01*
X171500000Y-108320000D02*
X172500000Y-108320000D01*
X176500000Y-120820000D02*
X177500000Y-120820000D01*
X177500000Y-122180000D02*
X176500000Y-122180000D01*
X187500000Y-122180000D02*
X186500000Y-122180000D01*
X186500000Y-120820000D02*
X187500000Y-120820000D01*
X186500000Y-111820000D02*
X187500000Y-111820000D01*
X187500000Y-113180000D02*
X186500000Y-113180000D01*
X117500000Y-113180000D02*
X116500000Y-113180000D01*
X116500000Y-111820000D02*
X117500000Y-111820000D01*
D10*
X135122380Y-82333333D02*
X135836666Y-82333333D01*
X135979523Y-82380952D01*
X136074761Y-82476190D01*
X136122380Y-82619047D01*
X136122380Y-82714285D01*
X136122380Y-81333333D02*
X136122380Y-81904761D01*
X136122380Y-81619047D02*
X135122380Y-81619047D01*
X135265238Y-81714285D01*
X135360476Y-81809523D01*
X135408095Y-81904761D01*
X187404761Y-118809523D02*
X187452380Y-118666666D01*
X187452380Y-118428571D01*
X187404761Y-118333333D01*
X187357142Y-118285714D01*
X187261904Y-118238095D01*
X187166666Y-118238095D01*
X187071428Y-118285714D01*
X187023809Y-118333333D01*
X186976190Y-118428571D01*
X186928571Y-118619047D01*
X186880952Y-118714285D01*
X186833333Y-118761904D01*
X186738095Y-118809523D01*
X186642857Y-118809523D01*
X186547619Y-118761904D01*
X186500000Y-118714285D01*
X186452380Y-118619047D01*
X186452380Y-118380952D01*
X186500000Y-118238095D01*
X186452380Y-117904761D02*
X187452380Y-117666666D01*
X186738095Y-117476190D01*
X187452380Y-117285714D01*
X186452380Y-117047619D01*
X187452380Y-116142857D02*
X187452380Y-116714285D01*
X187452380Y-116428571D02*
X186452380Y-116428571D01*
X186595238Y-116523809D01*
X186690476Y-116619047D01*
X186738095Y-116714285D01*
X186452380Y-115809523D02*
X186452380Y-115190476D01*
X186833333Y-115523809D01*
X186833333Y-115380952D01*
X186880952Y-115285714D01*
X186928571Y-115238095D01*
X187023809Y-115190476D01*
X187261904Y-115190476D01*
X187357142Y-115238095D01*
X187404761Y-115285714D01*
X187452380Y-115380952D01*
X187452380Y-115666666D01*
X187404761Y-115761904D01*
X187357142Y-115809523D01*
X177404761Y-118809523D02*
X177452380Y-118666666D01*
X177452380Y-118428571D01*
X177404761Y-118333333D01*
X177357142Y-118285714D01*
X177261904Y-118238095D01*
X177166666Y-118238095D01*
X177071428Y-118285714D01*
X177023809Y-118333333D01*
X176976190Y-118428571D01*
X176928571Y-118619047D01*
X176880952Y-118714285D01*
X176833333Y-118761904D01*
X176738095Y-118809523D01*
X176642857Y-118809523D01*
X176547619Y-118761904D01*
X176500000Y-118714285D01*
X176452380Y-118619047D01*
X176452380Y-118380952D01*
X176500000Y-118238095D01*
X176452380Y-117904761D02*
X177452380Y-117666666D01*
X176738095Y-117476190D01*
X177452380Y-117285714D01*
X176452380Y-117047619D01*
X177452380Y-116142857D02*
X177452380Y-116714285D01*
X177452380Y-116428571D02*
X176452380Y-116428571D01*
X176595238Y-116523809D01*
X176690476Y-116619047D01*
X176738095Y-116714285D01*
X176547619Y-115761904D02*
X176500000Y-115714285D01*
X176452380Y-115619047D01*
X176452380Y-115380952D01*
X176500000Y-115285714D01*
X176547619Y-115238095D01*
X176642857Y-115190476D01*
X176738095Y-115190476D01*
X176880952Y-115238095D01*
X177452380Y-115809523D01*
X177452380Y-115190476D01*
X172404761Y-106309523D02*
X172452380Y-106166666D01*
X172452380Y-105928571D01*
X172404761Y-105833333D01*
X172357142Y-105785714D01*
X172261904Y-105738095D01*
X172166666Y-105738095D01*
X172071428Y-105785714D01*
X172023809Y-105833333D01*
X171976190Y-105928571D01*
X171928571Y-106119047D01*
X171880952Y-106214285D01*
X171833333Y-106261904D01*
X171738095Y-106309523D01*
X171642857Y-106309523D01*
X171547619Y-106261904D01*
X171500000Y-106214285D01*
X171452380Y-106119047D01*
X171452380Y-105880952D01*
X171500000Y-105738095D01*
X171452380Y-105404761D02*
X172452380Y-105166666D01*
X171738095Y-104976190D01*
X172452380Y-104785714D01*
X171452380Y-104547619D01*
X172452380Y-103642857D02*
X172452380Y-104214285D01*
X172452380Y-103928571D02*
X171452380Y-103928571D01*
X171595238Y-104023809D01*
X171690476Y-104119047D01*
X171738095Y-104214285D01*
X172452380Y-102690476D02*
X172452380Y-103261904D01*
X172452380Y-102976190D02*
X171452380Y-102976190D01*
X171595238Y-103071428D01*
X171690476Y-103166666D01*
X171738095Y-103261904D01*
X167404761Y-118809523D02*
X167452380Y-118666666D01*
X167452380Y-118428571D01*
X167404761Y-118333333D01*
X167357142Y-118285714D01*
X167261904Y-118238095D01*
X167166666Y-118238095D01*
X167071428Y-118285714D01*
X167023809Y-118333333D01*
X166976190Y-118428571D01*
X166928571Y-118619047D01*
X166880952Y-118714285D01*
X166833333Y-118761904D01*
X166738095Y-118809523D01*
X166642857Y-118809523D01*
X166547619Y-118761904D01*
X166500000Y-118714285D01*
X166452380Y-118619047D01*
X166452380Y-118380952D01*
X166500000Y-118238095D01*
X166452380Y-117904761D02*
X167452380Y-117666666D01*
X166738095Y-117476190D01*
X167452380Y-117285714D01*
X166452380Y-117047619D01*
X167452380Y-116142857D02*
X167452380Y-116714285D01*
X167452380Y-116428571D02*
X166452380Y-116428571D01*
X166595238Y-116523809D01*
X166690476Y-116619047D01*
X166738095Y-116714285D01*
X166452380Y-115523809D02*
X166452380Y-115428571D01*
X166500000Y-115333333D01*
X166547619Y-115285714D01*
X166642857Y-115238095D01*
X166833333Y-115190476D01*
X167071428Y-115190476D01*
X167261904Y-115238095D01*
X167357142Y-115285714D01*
X167404761Y-115333333D01*
X167452380Y-115428571D01*
X167452380Y-115523809D01*
X167404761Y-115619047D01*
X167357142Y-115666666D01*
X167261904Y-115714285D01*
X167071428Y-115761904D01*
X166833333Y-115761904D01*
X166642857Y-115714285D01*
X166547619Y-115666666D01*
X166500000Y-115619047D01*
X166452380Y-115523809D01*
X162404761Y-105833333D02*
X162452380Y-105690476D01*
X162452380Y-105452380D01*
X162404761Y-105357142D01*
X162357142Y-105309523D01*
X162261904Y-105261904D01*
X162166666Y-105261904D01*
X162071428Y-105309523D01*
X162023809Y-105357142D01*
X161976190Y-105452380D01*
X161928571Y-105642857D01*
X161880952Y-105738095D01*
X161833333Y-105785714D01*
X161738095Y-105833333D01*
X161642857Y-105833333D01*
X161547619Y-105785714D01*
X161500000Y-105738095D01*
X161452380Y-105642857D01*
X161452380Y-105404761D01*
X161500000Y-105261904D01*
X161452380Y-104928571D02*
X162452380Y-104690476D01*
X161738095Y-104500000D01*
X162452380Y-104309523D01*
X161452380Y-104071428D01*
X162452380Y-103642857D02*
X162452380Y-103452380D01*
X162404761Y-103357142D01*
X162357142Y-103309523D01*
X162214285Y-103214285D01*
X162023809Y-103166666D01*
X161642857Y-103166666D01*
X161547619Y-103214285D01*
X161500000Y-103261904D01*
X161452380Y-103357142D01*
X161452380Y-103547619D01*
X161500000Y-103642857D01*
X161547619Y-103690476D01*
X161642857Y-103738095D01*
X161880952Y-103738095D01*
X161976190Y-103690476D01*
X162023809Y-103642857D01*
X162071428Y-103547619D01*
X162071428Y-103357142D01*
X162023809Y-103261904D01*
X161976190Y-103214285D01*
X161880952Y-103166666D01*
X157404761Y-118333333D02*
X157452380Y-118190476D01*
X157452380Y-117952380D01*
X157404761Y-117857142D01*
X157357142Y-117809523D01*
X157261904Y-117761904D01*
X157166666Y-117761904D01*
X157071428Y-117809523D01*
X157023809Y-117857142D01*
X156976190Y-117952380D01*
X156928571Y-118142857D01*
X156880952Y-118238095D01*
X156833333Y-118285714D01*
X156738095Y-118333333D01*
X156642857Y-118333333D01*
X156547619Y-118285714D01*
X156500000Y-118238095D01*
X156452380Y-118142857D01*
X156452380Y-117904761D01*
X156500000Y-117761904D01*
X156452380Y-117428571D02*
X157452380Y-117190476D01*
X156738095Y-117000000D01*
X157452380Y-116809523D01*
X156452380Y-116571428D01*
X156880952Y-116047619D02*
X156833333Y-116142857D01*
X156785714Y-116190476D01*
X156690476Y-116238095D01*
X156642857Y-116238095D01*
X156547619Y-116190476D01*
X156500000Y-116142857D01*
X156452380Y-116047619D01*
X156452380Y-115857142D01*
X156500000Y-115761904D01*
X156547619Y-115714285D01*
X156642857Y-115666666D01*
X156690476Y-115666666D01*
X156785714Y-115714285D01*
X156833333Y-115761904D01*
X156880952Y-115857142D01*
X156880952Y-116047619D01*
X156928571Y-116142857D01*
X156976190Y-116190476D01*
X157071428Y-116238095D01*
X157261904Y-116238095D01*
X157357142Y-116190476D01*
X157404761Y-116142857D01*
X157452380Y-116047619D01*
X157452380Y-115857142D01*
X157404761Y-115761904D01*
X157357142Y-115714285D01*
X157261904Y-115666666D01*
X157071428Y-115666666D01*
X156976190Y-115714285D01*
X156928571Y-115761904D01*
X156880952Y-115857142D01*
X152404761Y-105833333D02*
X152452380Y-105690476D01*
X152452380Y-105452380D01*
X152404761Y-105357142D01*
X152357142Y-105309523D01*
X152261904Y-105261904D01*
X152166666Y-105261904D01*
X152071428Y-105309523D01*
X152023809Y-105357142D01*
X151976190Y-105452380D01*
X151928571Y-105642857D01*
X151880952Y-105738095D01*
X151833333Y-105785714D01*
X151738095Y-105833333D01*
X151642857Y-105833333D01*
X151547619Y-105785714D01*
X151500000Y-105738095D01*
X151452380Y-105642857D01*
X151452380Y-105404761D01*
X151500000Y-105261904D01*
X151452380Y-104928571D02*
X152452380Y-104690476D01*
X151738095Y-104500000D01*
X152452380Y-104309523D01*
X151452380Y-104071428D01*
X151452380Y-103785714D02*
X151452380Y-103119047D01*
X152452380Y-103547619D01*
X147404761Y-118333333D02*
X147452380Y-118190476D01*
X147452380Y-117952380D01*
X147404761Y-117857142D01*
X147357142Y-117809523D01*
X147261904Y-117761904D01*
X147166666Y-117761904D01*
X147071428Y-117809523D01*
X147023809Y-117857142D01*
X146976190Y-117952380D01*
X146928571Y-118142857D01*
X146880952Y-118238095D01*
X146833333Y-118285714D01*
X146738095Y-118333333D01*
X146642857Y-118333333D01*
X146547619Y-118285714D01*
X146500000Y-118238095D01*
X146452380Y-118142857D01*
X146452380Y-117904761D01*
X146500000Y-117761904D01*
X146452380Y-117428571D02*
X147452380Y-117190476D01*
X146738095Y-117000000D01*
X147452380Y-116809523D01*
X146452380Y-116571428D01*
X146452380Y-115761904D02*
X146452380Y-115952380D01*
X146500000Y-116047619D01*
X146547619Y-116095238D01*
X146690476Y-116190476D01*
X146880952Y-116238095D01*
X147261904Y-116238095D01*
X147357142Y-116190476D01*
X147404761Y-116142857D01*
X147452380Y-116047619D01*
X147452380Y-115857142D01*
X147404761Y-115761904D01*
X147357142Y-115714285D01*
X147261904Y-115666666D01*
X147023809Y-115666666D01*
X146928571Y-115714285D01*
X146880952Y-115761904D01*
X146833333Y-115857142D01*
X146833333Y-116047619D01*
X146880952Y-116142857D01*
X146928571Y-116190476D01*
X147023809Y-116238095D01*
X137404761Y-118333333D02*
X137452380Y-118190476D01*
X137452380Y-117952380D01*
X137404761Y-117857142D01*
X137357142Y-117809523D01*
X137261904Y-117761904D01*
X137166666Y-117761904D01*
X137071428Y-117809523D01*
X137023809Y-117857142D01*
X136976190Y-117952380D01*
X136928571Y-118142857D01*
X136880952Y-118238095D01*
X136833333Y-118285714D01*
X136738095Y-118333333D01*
X136642857Y-118333333D01*
X136547619Y-118285714D01*
X136500000Y-118238095D01*
X136452380Y-118142857D01*
X136452380Y-117904761D01*
X136500000Y-117761904D01*
X136452380Y-117428571D02*
X137452380Y-117190476D01*
X136738095Y-117000000D01*
X137452380Y-116809523D01*
X136452380Y-116571428D01*
X136452380Y-115714285D02*
X136452380Y-116190476D01*
X136928571Y-116238095D01*
X136880952Y-116190476D01*
X136833333Y-116095238D01*
X136833333Y-115857142D01*
X136880952Y-115761904D01*
X136928571Y-115714285D01*
X137023809Y-115666666D01*
X137261904Y-115666666D01*
X137357142Y-115714285D01*
X137404761Y-115761904D01*
X137452380Y-115857142D01*
X137452380Y-116095238D01*
X137404761Y-116190476D01*
X137357142Y-116238095D01*
X132404761Y-105833333D02*
X132452380Y-105690476D01*
X132452380Y-105452380D01*
X132404761Y-105357142D01*
X132357142Y-105309523D01*
X132261904Y-105261904D01*
X132166666Y-105261904D01*
X132071428Y-105309523D01*
X132023809Y-105357142D01*
X131976190Y-105452380D01*
X131928571Y-105642857D01*
X131880952Y-105738095D01*
X131833333Y-105785714D01*
X131738095Y-105833333D01*
X131642857Y-105833333D01*
X131547619Y-105785714D01*
X131500000Y-105738095D01*
X131452380Y-105642857D01*
X131452380Y-105404761D01*
X131500000Y-105261904D01*
X131452380Y-104928571D02*
X132452380Y-104690476D01*
X131738095Y-104500000D01*
X132452380Y-104309523D01*
X131452380Y-104071428D01*
X131785714Y-103261904D02*
X132452380Y-103261904D01*
X131404761Y-103500000D02*
X132119047Y-103738095D01*
X132119047Y-103119047D01*
X127404761Y-118333333D02*
X127452380Y-118190476D01*
X127452380Y-117952380D01*
X127404761Y-117857142D01*
X127357142Y-117809523D01*
X127261904Y-117761904D01*
X127166666Y-117761904D01*
X127071428Y-117809523D01*
X127023809Y-117857142D01*
X126976190Y-117952380D01*
X126928571Y-118142857D01*
X126880952Y-118238095D01*
X126833333Y-118285714D01*
X126738095Y-118333333D01*
X126642857Y-118333333D01*
X126547619Y-118285714D01*
X126500000Y-118238095D01*
X126452380Y-118142857D01*
X126452380Y-117904761D01*
X126500000Y-117761904D01*
X126452380Y-117428571D02*
X127452380Y-117190476D01*
X126738095Y-117000000D01*
X127452380Y-116809523D01*
X126452380Y-116571428D01*
X126452380Y-116285714D02*
X126452380Y-115666666D01*
X126833333Y-116000000D01*
X126833333Y-115857142D01*
X126880952Y-115761904D01*
X126928571Y-115714285D01*
X127023809Y-115666666D01*
X127261904Y-115666666D01*
X127357142Y-115714285D01*
X127404761Y-115761904D01*
X127452380Y-115857142D01*
X127452380Y-116142857D01*
X127404761Y-116238095D01*
X127357142Y-116285714D01*
X122404761Y-105833333D02*
X122452380Y-105690476D01*
X122452380Y-105452380D01*
X122404761Y-105357142D01*
X122357142Y-105309523D01*
X122261904Y-105261904D01*
X122166666Y-105261904D01*
X122071428Y-105309523D01*
X122023809Y-105357142D01*
X121976190Y-105452380D01*
X121928571Y-105642857D01*
X121880952Y-105738095D01*
X121833333Y-105785714D01*
X121738095Y-105833333D01*
X121642857Y-105833333D01*
X121547619Y-105785714D01*
X121500000Y-105738095D01*
X121452380Y-105642857D01*
X121452380Y-105404761D01*
X121500000Y-105261904D01*
X121452380Y-104928571D02*
X122452380Y-104690476D01*
X121738095Y-104500000D01*
X122452380Y-104309523D01*
X121452380Y-104071428D01*
X121547619Y-103738095D02*
X121500000Y-103690476D01*
X121452380Y-103595238D01*
X121452380Y-103357142D01*
X121500000Y-103261904D01*
X121547619Y-103214285D01*
X121642857Y-103166666D01*
X121738095Y-103166666D01*
X121880952Y-103214285D01*
X122452380Y-103785714D01*
X122452380Y-103166666D01*
X117404761Y-118333333D02*
X117452380Y-118190476D01*
X117452380Y-117952380D01*
X117404761Y-117857142D01*
X117357142Y-117809523D01*
X117261904Y-117761904D01*
X117166666Y-117761904D01*
X117071428Y-117809523D01*
X117023809Y-117857142D01*
X116976190Y-117952380D01*
X116928571Y-118142857D01*
X116880952Y-118238095D01*
X116833333Y-118285714D01*
X116738095Y-118333333D01*
X116642857Y-118333333D01*
X116547619Y-118285714D01*
X116500000Y-118238095D01*
X116452380Y-118142857D01*
X116452380Y-117904761D01*
X116500000Y-117761904D01*
X116452380Y-117428571D02*
X117452380Y-117190476D01*
X116738095Y-117000000D01*
X117452380Y-116809523D01*
X116452380Y-116571428D01*
X117452380Y-115666666D02*
X117452380Y-116238095D01*
X117452380Y-115952380D02*
X116452380Y-115952380D01*
X116595238Y-116047619D01*
X116690476Y-116142857D01*
X116738095Y-116238095D01*
X117404761Y-93809523D02*
X117452380Y-93666666D01*
X117452380Y-93428571D01*
X117404761Y-93333333D01*
X117357142Y-93285714D01*
X117261904Y-93238095D01*
X117166666Y-93238095D01*
X117071428Y-93285714D01*
X117023809Y-93333333D01*
X116976190Y-93428571D01*
X116928571Y-93619047D01*
X116880952Y-93714285D01*
X116833333Y-93761904D01*
X116738095Y-93809523D01*
X116642857Y-93809523D01*
X116547619Y-93761904D01*
X116500000Y-93714285D01*
X116452380Y-93619047D01*
X116452380Y-93380952D01*
X116500000Y-93238095D01*
X116452380Y-92904761D02*
X117452380Y-92666666D01*
X116738095Y-92476190D01*
X117452380Y-92285714D01*
X116452380Y-92047619D01*
X117452380Y-91142857D02*
X117452380Y-91714285D01*
X117452380Y-91428571D02*
X116452380Y-91428571D01*
X116595238Y-91523809D01*
X116690476Y-91619047D01*
X116738095Y-91714285D01*
X116785714Y-90285714D02*
X117452380Y-90285714D01*
X116404761Y-90523809D02*
X117119047Y-90761904D01*
X117119047Y-90142857D01*
X127404761Y-93809523D02*
X127452380Y-93666666D01*
X127452380Y-93428571D01*
X127404761Y-93333333D01*
X127357142Y-93285714D01*
X127261904Y-93238095D01*
X127166666Y-93238095D01*
X127071428Y-93285714D01*
X127023809Y-93333333D01*
X126976190Y-93428571D01*
X126928571Y-93619047D01*
X126880952Y-93714285D01*
X126833333Y-93761904D01*
X126738095Y-93809523D01*
X126642857Y-93809523D01*
X126547619Y-93761904D01*
X126500000Y-93714285D01*
X126452380Y-93619047D01*
X126452380Y-93380952D01*
X126500000Y-93238095D01*
X126452380Y-92904761D02*
X127452380Y-92666666D01*
X126738095Y-92476190D01*
X127452380Y-92285714D01*
X126452380Y-92047619D01*
X127452380Y-91142857D02*
X127452380Y-91714285D01*
X127452380Y-91428571D02*
X126452380Y-91428571D01*
X126595238Y-91523809D01*
X126690476Y-91619047D01*
X126738095Y-91714285D01*
X126452380Y-90238095D02*
X126452380Y-90714285D01*
X126928571Y-90761904D01*
X126880952Y-90714285D01*
X126833333Y-90619047D01*
X126833333Y-90380952D01*
X126880952Y-90285714D01*
X126928571Y-90238095D01*
X127023809Y-90190476D01*
X127261904Y-90190476D01*
X127357142Y-90238095D01*
X127404761Y-90285714D01*
X127452380Y-90380952D01*
X127452380Y-90619047D01*
X127404761Y-90714285D01*
X127357142Y-90761904D01*
X137404761Y-93809523D02*
X137452380Y-93666666D01*
X137452380Y-93428571D01*
X137404761Y-93333333D01*
X137357142Y-93285714D01*
X137261904Y-93238095D01*
X137166666Y-93238095D01*
X137071428Y-93285714D01*
X137023809Y-93333333D01*
X136976190Y-93428571D01*
X136928571Y-93619047D01*
X136880952Y-93714285D01*
X136833333Y-93761904D01*
X136738095Y-93809523D01*
X136642857Y-93809523D01*
X136547619Y-93761904D01*
X136500000Y-93714285D01*
X136452380Y-93619047D01*
X136452380Y-93380952D01*
X136500000Y-93238095D01*
X136452380Y-92904761D02*
X137452380Y-92666666D01*
X136738095Y-92476190D01*
X137452380Y-92285714D01*
X136452380Y-92047619D01*
X137452380Y-91142857D02*
X137452380Y-91714285D01*
X137452380Y-91428571D02*
X136452380Y-91428571D01*
X136595238Y-91523809D01*
X136690476Y-91619047D01*
X136738095Y-91714285D01*
X136452380Y-90285714D02*
X136452380Y-90476190D01*
X136500000Y-90571428D01*
X136547619Y-90619047D01*
X136690476Y-90714285D01*
X136880952Y-90761904D01*
X137261904Y-90761904D01*
X137357142Y-90714285D01*
X137404761Y-90666666D01*
X137452380Y-90571428D01*
X137452380Y-90380952D01*
X137404761Y-90285714D01*
X137357142Y-90238095D01*
X137261904Y-90190476D01*
X137023809Y-90190476D01*
X136928571Y-90238095D01*
X136880952Y-90285714D01*
X136833333Y-90380952D01*
X136833333Y-90571428D01*
X136880952Y-90666666D01*
X136928571Y-90714285D01*
X137023809Y-90761904D01*
X147404761Y-93809523D02*
X147452380Y-93666666D01*
X147452380Y-93428571D01*
X147404761Y-93333333D01*
X147357142Y-93285714D01*
X147261904Y-93238095D01*
X147166666Y-93238095D01*
X147071428Y-93285714D01*
X147023809Y-93333333D01*
X146976190Y-93428571D01*
X146928571Y-93619047D01*
X146880952Y-93714285D01*
X146833333Y-93761904D01*
X146738095Y-93809523D01*
X146642857Y-93809523D01*
X146547619Y-93761904D01*
X146500000Y-93714285D01*
X146452380Y-93619047D01*
X146452380Y-93380952D01*
X146500000Y-93238095D01*
X146452380Y-92904761D02*
X147452380Y-92666666D01*
X146738095Y-92476190D01*
X147452380Y-92285714D01*
X146452380Y-92047619D01*
X147452380Y-91142857D02*
X147452380Y-91714285D01*
X147452380Y-91428571D02*
X146452380Y-91428571D01*
X146595238Y-91523809D01*
X146690476Y-91619047D01*
X146738095Y-91714285D01*
X146452380Y-90809523D02*
X146452380Y-90142857D01*
X147452380Y-90571428D01*
X157404761Y-93809523D02*
X157452380Y-93666666D01*
X157452380Y-93428571D01*
X157404761Y-93333333D01*
X157357142Y-93285714D01*
X157261904Y-93238095D01*
X157166666Y-93238095D01*
X157071428Y-93285714D01*
X157023809Y-93333333D01*
X156976190Y-93428571D01*
X156928571Y-93619047D01*
X156880952Y-93714285D01*
X156833333Y-93761904D01*
X156738095Y-93809523D01*
X156642857Y-93809523D01*
X156547619Y-93761904D01*
X156500000Y-93714285D01*
X156452380Y-93619047D01*
X156452380Y-93380952D01*
X156500000Y-93238095D01*
X156452380Y-92904761D02*
X157452380Y-92666666D01*
X156738095Y-92476190D01*
X157452380Y-92285714D01*
X156452380Y-92047619D01*
X157452380Y-91142857D02*
X157452380Y-91714285D01*
X157452380Y-91428571D02*
X156452380Y-91428571D01*
X156595238Y-91523809D01*
X156690476Y-91619047D01*
X156738095Y-91714285D01*
X156880952Y-90571428D02*
X156833333Y-90666666D01*
X156785714Y-90714285D01*
X156690476Y-90761904D01*
X156642857Y-90761904D01*
X156547619Y-90714285D01*
X156500000Y-90666666D01*
X156452380Y-90571428D01*
X156452380Y-90380952D01*
X156500000Y-90285714D01*
X156547619Y-90238095D01*
X156642857Y-90190476D01*
X156690476Y-90190476D01*
X156785714Y-90238095D01*
X156833333Y-90285714D01*
X156880952Y-90380952D01*
X156880952Y-90571428D01*
X156928571Y-90666666D01*
X156976190Y-90714285D01*
X157071428Y-90761904D01*
X157261904Y-90761904D01*
X157357142Y-90714285D01*
X157404761Y-90666666D01*
X157452380Y-90571428D01*
X157452380Y-90380952D01*
X157404761Y-90285714D01*
X157357142Y-90238095D01*
X157261904Y-90190476D01*
X157071428Y-90190476D01*
X156976190Y-90238095D01*
X156928571Y-90285714D01*
X156880952Y-90380952D01*
X167404761Y-93809523D02*
X167452380Y-93666666D01*
X167452380Y-93428571D01*
X167404761Y-93333333D01*
X167357142Y-93285714D01*
X167261904Y-93238095D01*
X167166666Y-93238095D01*
X167071428Y-93285714D01*
X167023809Y-93333333D01*
X166976190Y-93428571D01*
X166928571Y-93619047D01*
X166880952Y-93714285D01*
X166833333Y-93761904D01*
X166738095Y-93809523D01*
X166642857Y-93809523D01*
X166547619Y-93761904D01*
X166500000Y-93714285D01*
X166452380Y-93619047D01*
X166452380Y-93380952D01*
X166500000Y-93238095D01*
X166452380Y-92904761D02*
X167452380Y-92666666D01*
X166738095Y-92476190D01*
X167452380Y-92285714D01*
X166452380Y-92047619D01*
X167452380Y-91142857D02*
X167452380Y-91714285D01*
X167452380Y-91428571D02*
X166452380Y-91428571D01*
X166595238Y-91523809D01*
X166690476Y-91619047D01*
X166738095Y-91714285D01*
X167452380Y-90666666D02*
X167452380Y-90476190D01*
X167404761Y-90380952D01*
X167357142Y-90333333D01*
X167214285Y-90238095D01*
X167023809Y-90190476D01*
X166642857Y-90190476D01*
X166547619Y-90238095D01*
X166500000Y-90285714D01*
X166452380Y-90380952D01*
X166452380Y-90571428D01*
X166500000Y-90666666D01*
X166547619Y-90714285D01*
X166642857Y-90761904D01*
X166880952Y-90761904D01*
X166976190Y-90714285D01*
X167023809Y-90666666D01*
X167071428Y-90571428D01*
X167071428Y-90380952D01*
X167023809Y-90285714D01*
X166976190Y-90238095D01*
X166880952Y-90190476D01*
X177404761Y-93809523D02*
X177452380Y-93666666D01*
X177452380Y-93428571D01*
X177404761Y-93333333D01*
X177357142Y-93285714D01*
X177261904Y-93238095D01*
X177166666Y-93238095D01*
X177071428Y-93285714D01*
X177023809Y-93333333D01*
X176976190Y-93428571D01*
X176928571Y-93619047D01*
X176880952Y-93714285D01*
X176833333Y-93761904D01*
X176738095Y-93809523D01*
X176642857Y-93809523D01*
X176547619Y-93761904D01*
X176500000Y-93714285D01*
X176452380Y-93619047D01*
X176452380Y-93380952D01*
X176500000Y-93238095D01*
X176452380Y-92904761D02*
X177452380Y-92666666D01*
X176738095Y-92476190D01*
X177452380Y-92285714D01*
X176452380Y-92047619D01*
X176547619Y-91714285D02*
X176500000Y-91666666D01*
X176452380Y-91571428D01*
X176452380Y-91333333D01*
X176500000Y-91238095D01*
X176547619Y-91190476D01*
X176642857Y-91142857D01*
X176738095Y-91142857D01*
X176880952Y-91190476D01*
X177452380Y-91761904D01*
X177452380Y-91142857D01*
X176452380Y-90523809D02*
X176452380Y-90428571D01*
X176500000Y-90333333D01*
X176547619Y-90285714D01*
X176642857Y-90238095D01*
X176833333Y-90190476D01*
X177071428Y-90190476D01*
X177261904Y-90238095D01*
X177357142Y-90285714D01*
X177404761Y-90333333D01*
X177452380Y-90428571D01*
X177452380Y-90523809D01*
X177404761Y-90619047D01*
X177357142Y-90666666D01*
X177261904Y-90714285D01*
X177071428Y-90761904D01*
X176833333Y-90761904D01*
X176642857Y-90714285D01*
X176547619Y-90666666D01*
X176500000Y-90619047D01*
X176452380Y-90523809D01*
X187404761Y-93809523D02*
X187452380Y-93666666D01*
X187452380Y-93428571D01*
X187404761Y-93333333D01*
X187357142Y-93285714D01*
X187261904Y-93238095D01*
X187166666Y-93238095D01*
X187071428Y-93285714D01*
X187023809Y-93333333D01*
X186976190Y-93428571D01*
X186928571Y-93619047D01*
X186880952Y-93714285D01*
X186833333Y-93761904D01*
X186738095Y-93809523D01*
X186642857Y-93809523D01*
X186547619Y-93761904D01*
X186500000Y-93714285D01*
X186452380Y-93619047D01*
X186452380Y-93380952D01*
X186500000Y-93238095D01*
X186452380Y-92904761D02*
X187452380Y-92666666D01*
X186738095Y-92476190D01*
X187452380Y-92285714D01*
X186452380Y-92047619D01*
X186547619Y-91714285D02*
X186500000Y-91666666D01*
X186452380Y-91571428D01*
X186452380Y-91333333D01*
X186500000Y-91238095D01*
X186547619Y-91190476D01*
X186642857Y-91142857D01*
X186738095Y-91142857D01*
X186880952Y-91190476D01*
X187452380Y-91761904D01*
X187452380Y-91142857D01*
X187452380Y-90190476D02*
X187452380Y-90761904D01*
X187452380Y-90476190D02*
X186452380Y-90476190D01*
X186595238Y-90571428D01*
X186690476Y-90666666D01*
X186738095Y-90761904D01*
X116833333Y-120502380D02*
X116500000Y-120026190D01*
X116261904Y-120502380D02*
X116261904Y-119502380D01*
X116642857Y-119502380D01*
X116738095Y-119550000D01*
X116785714Y-119597619D01*
X116833333Y-119692857D01*
X116833333Y-119835714D01*
X116785714Y-119930952D01*
X116738095Y-119978571D01*
X116642857Y-120026190D01*
X116261904Y-120026190D01*
X117785714Y-120502380D02*
X117214285Y-120502380D01*
X117500000Y-120502380D02*
X117500000Y-119502380D01*
X117404761Y-119645238D01*
X117309523Y-119740476D01*
X117214285Y-119788095D01*
X121833333Y-108002380D02*
X121500000Y-107526190D01*
X121261904Y-108002380D02*
X121261904Y-107002380D01*
X121642857Y-107002380D01*
X121738095Y-107050000D01*
X121785714Y-107097619D01*
X121833333Y-107192857D01*
X121833333Y-107335714D01*
X121785714Y-107430952D01*
X121738095Y-107478571D01*
X121642857Y-107526190D01*
X121261904Y-107526190D01*
X122214285Y-107097619D02*
X122261904Y-107050000D01*
X122357142Y-107002380D01*
X122595238Y-107002380D01*
X122690476Y-107050000D01*
X122738095Y-107097619D01*
X122785714Y-107192857D01*
X122785714Y-107288095D01*
X122738095Y-107430952D01*
X122166666Y-108002380D01*
X122785714Y-108002380D01*
X126833333Y-120502380D02*
X126500000Y-120026190D01*
X126261904Y-120502380D02*
X126261904Y-119502380D01*
X126642857Y-119502380D01*
X126738095Y-119550000D01*
X126785714Y-119597619D01*
X126833333Y-119692857D01*
X126833333Y-119835714D01*
X126785714Y-119930952D01*
X126738095Y-119978571D01*
X126642857Y-120026190D01*
X126261904Y-120026190D01*
X127166666Y-119502380D02*
X127785714Y-119502380D01*
X127452380Y-119883333D01*
X127595238Y-119883333D01*
X127690476Y-119930952D01*
X127738095Y-119978571D01*
X127785714Y-120073809D01*
X127785714Y-120311904D01*
X127738095Y-120407142D01*
X127690476Y-120454761D01*
X127595238Y-120502380D01*
X127309523Y-120502380D01*
X127214285Y-120454761D01*
X127166666Y-120407142D01*
X131833333Y-108002380D02*
X131500000Y-107526190D01*
X131261904Y-108002380D02*
X131261904Y-107002380D01*
X131642857Y-107002380D01*
X131738095Y-107050000D01*
X131785714Y-107097619D01*
X131833333Y-107192857D01*
X131833333Y-107335714D01*
X131785714Y-107430952D01*
X131738095Y-107478571D01*
X131642857Y-107526190D01*
X131261904Y-107526190D01*
X132690476Y-107335714D02*
X132690476Y-108002380D01*
X132452380Y-106954761D02*
X132214285Y-107669047D01*
X132833333Y-107669047D01*
X136833333Y-120502380D02*
X136500000Y-120026190D01*
X136261904Y-120502380D02*
X136261904Y-119502380D01*
X136642857Y-119502380D01*
X136738095Y-119550000D01*
X136785714Y-119597619D01*
X136833333Y-119692857D01*
X136833333Y-119835714D01*
X136785714Y-119930952D01*
X136738095Y-119978571D01*
X136642857Y-120026190D01*
X136261904Y-120026190D01*
X137738095Y-119502380D02*
X137261904Y-119502380D01*
X137214285Y-119978571D01*
X137261904Y-119930952D01*
X137357142Y-119883333D01*
X137595238Y-119883333D01*
X137690476Y-119930952D01*
X137738095Y-119978571D01*
X137785714Y-120073809D01*
X137785714Y-120311904D01*
X137738095Y-120407142D01*
X137690476Y-120454761D01*
X137595238Y-120502380D01*
X137357142Y-120502380D01*
X137261904Y-120454761D01*
X137214285Y-120407142D01*
X146833333Y-120502380D02*
X146500000Y-120026190D01*
X146261904Y-120502380D02*
X146261904Y-119502380D01*
X146642857Y-119502380D01*
X146738095Y-119550000D01*
X146785714Y-119597619D01*
X146833333Y-119692857D01*
X146833333Y-119835714D01*
X146785714Y-119930952D01*
X146738095Y-119978571D01*
X146642857Y-120026190D01*
X146261904Y-120026190D01*
X147690476Y-119502380D02*
X147500000Y-119502380D01*
X147404761Y-119550000D01*
X147357142Y-119597619D01*
X147261904Y-119740476D01*
X147214285Y-119930952D01*
X147214285Y-120311904D01*
X147261904Y-120407142D01*
X147309523Y-120454761D01*
X147404761Y-120502380D01*
X147595238Y-120502380D01*
X147690476Y-120454761D01*
X147738095Y-120407142D01*
X147785714Y-120311904D01*
X147785714Y-120073809D01*
X147738095Y-119978571D01*
X147690476Y-119930952D01*
X147595238Y-119883333D01*
X147404761Y-119883333D01*
X147309523Y-119930952D01*
X147261904Y-119978571D01*
X147214285Y-120073809D01*
X151833333Y-108002380D02*
X151500000Y-107526190D01*
X151261904Y-108002380D02*
X151261904Y-107002380D01*
X151642857Y-107002380D01*
X151738095Y-107050000D01*
X151785714Y-107097619D01*
X151833333Y-107192857D01*
X151833333Y-107335714D01*
X151785714Y-107430952D01*
X151738095Y-107478571D01*
X151642857Y-107526190D01*
X151261904Y-107526190D01*
X152166666Y-107002380D02*
X152833333Y-107002380D01*
X152404761Y-108002380D01*
X156833333Y-120502380D02*
X156500000Y-120026190D01*
X156261904Y-120502380D02*
X156261904Y-119502380D01*
X156642857Y-119502380D01*
X156738095Y-119550000D01*
X156785714Y-119597619D01*
X156833333Y-119692857D01*
X156833333Y-119835714D01*
X156785714Y-119930952D01*
X156738095Y-119978571D01*
X156642857Y-120026190D01*
X156261904Y-120026190D01*
X157404761Y-119930952D02*
X157309523Y-119883333D01*
X157261904Y-119835714D01*
X157214285Y-119740476D01*
X157214285Y-119692857D01*
X157261904Y-119597619D01*
X157309523Y-119550000D01*
X157404761Y-119502380D01*
X157595238Y-119502380D01*
X157690476Y-119550000D01*
X157738095Y-119597619D01*
X157785714Y-119692857D01*
X157785714Y-119740476D01*
X157738095Y-119835714D01*
X157690476Y-119883333D01*
X157595238Y-119930952D01*
X157404761Y-119930952D01*
X157309523Y-119978571D01*
X157261904Y-120026190D01*
X157214285Y-120121428D01*
X157214285Y-120311904D01*
X157261904Y-120407142D01*
X157309523Y-120454761D01*
X157404761Y-120502380D01*
X157595238Y-120502380D01*
X157690476Y-120454761D01*
X157738095Y-120407142D01*
X157785714Y-120311904D01*
X157785714Y-120121428D01*
X157738095Y-120026190D01*
X157690476Y-119978571D01*
X157595238Y-119930952D01*
X161833333Y-108002380D02*
X161500000Y-107526190D01*
X161261904Y-108002380D02*
X161261904Y-107002380D01*
X161642857Y-107002380D01*
X161738095Y-107050000D01*
X161785714Y-107097619D01*
X161833333Y-107192857D01*
X161833333Y-107335714D01*
X161785714Y-107430952D01*
X161738095Y-107478571D01*
X161642857Y-107526190D01*
X161261904Y-107526190D01*
X162309523Y-108002380D02*
X162500000Y-108002380D01*
X162595238Y-107954761D01*
X162642857Y-107907142D01*
X162738095Y-107764285D01*
X162785714Y-107573809D01*
X162785714Y-107192857D01*
X162738095Y-107097619D01*
X162690476Y-107050000D01*
X162595238Y-107002380D01*
X162404761Y-107002380D01*
X162309523Y-107050000D01*
X162261904Y-107097619D01*
X162214285Y-107192857D01*
X162214285Y-107430952D01*
X162261904Y-107526190D01*
X162309523Y-107573809D01*
X162404761Y-107621428D01*
X162595238Y-107621428D01*
X162690476Y-107573809D01*
X162738095Y-107526190D01*
X162785714Y-107430952D01*
X166357142Y-120502380D02*
X166023809Y-120026190D01*
X165785714Y-120502380D02*
X165785714Y-119502380D01*
X166166666Y-119502380D01*
X166261904Y-119550000D01*
X166309523Y-119597619D01*
X166357142Y-119692857D01*
X166357142Y-119835714D01*
X166309523Y-119930952D01*
X166261904Y-119978571D01*
X166166666Y-120026190D01*
X165785714Y-120026190D01*
X167309523Y-120502380D02*
X166738095Y-120502380D01*
X167023809Y-120502380D02*
X167023809Y-119502380D01*
X166928571Y-119645238D01*
X166833333Y-119740476D01*
X166738095Y-119788095D01*
X167928571Y-119502380D02*
X168023809Y-119502380D01*
X168119047Y-119550000D01*
X168166666Y-119597619D01*
X168214285Y-119692857D01*
X168261904Y-119883333D01*
X168261904Y-120121428D01*
X168214285Y-120311904D01*
X168166666Y-120407142D01*
X168119047Y-120454761D01*
X168023809Y-120502380D01*
X167928571Y-120502380D01*
X167833333Y-120454761D01*
X167785714Y-120407142D01*
X167738095Y-120311904D01*
X167690476Y-120121428D01*
X167690476Y-119883333D01*
X167738095Y-119692857D01*
X167785714Y-119597619D01*
X167833333Y-119550000D01*
X167928571Y-119502380D01*
X171357142Y-108002380D02*
X171023809Y-107526190D01*
X170785714Y-108002380D02*
X170785714Y-107002380D01*
X171166666Y-107002380D01*
X171261904Y-107050000D01*
X171309523Y-107097619D01*
X171357142Y-107192857D01*
X171357142Y-107335714D01*
X171309523Y-107430952D01*
X171261904Y-107478571D01*
X171166666Y-107526190D01*
X170785714Y-107526190D01*
X172309523Y-108002380D02*
X171738095Y-108002380D01*
X172023809Y-108002380D02*
X172023809Y-107002380D01*
X171928571Y-107145238D01*
X171833333Y-107240476D01*
X171738095Y-107288095D01*
X173261904Y-108002380D02*
X172690476Y-108002380D01*
X172976190Y-108002380D02*
X172976190Y-107002380D01*
X172880952Y-107145238D01*
X172785714Y-107240476D01*
X172690476Y-107288095D01*
X176357142Y-120502380D02*
X176023809Y-120026190D01*
X175785714Y-120502380D02*
X175785714Y-119502380D01*
X176166666Y-119502380D01*
X176261904Y-119550000D01*
X176309523Y-119597619D01*
X176357142Y-119692857D01*
X176357142Y-119835714D01*
X176309523Y-119930952D01*
X176261904Y-119978571D01*
X176166666Y-120026190D01*
X175785714Y-120026190D01*
X177309523Y-120502380D02*
X176738095Y-120502380D01*
X177023809Y-120502380D02*
X177023809Y-119502380D01*
X176928571Y-119645238D01*
X176833333Y-119740476D01*
X176738095Y-119788095D01*
X177690476Y-119597619D02*
X177738095Y-119550000D01*
X177833333Y-119502380D01*
X178071428Y-119502380D01*
X178166666Y-119550000D01*
X178214285Y-119597619D01*
X178261904Y-119692857D01*
X178261904Y-119788095D01*
X178214285Y-119930952D01*
X177642857Y-120502380D01*
X178261904Y-120502380D01*
X186357142Y-120502380D02*
X186023809Y-120026190D01*
X185785714Y-120502380D02*
X185785714Y-119502380D01*
X186166666Y-119502380D01*
X186261904Y-119550000D01*
X186309523Y-119597619D01*
X186357142Y-119692857D01*
X186357142Y-119835714D01*
X186309523Y-119930952D01*
X186261904Y-119978571D01*
X186166666Y-120026190D01*
X185785714Y-120026190D01*
X187309523Y-120502380D02*
X186738095Y-120502380D01*
X187023809Y-120502380D02*
X187023809Y-119502380D01*
X186928571Y-119645238D01*
X186833333Y-119740476D01*
X186738095Y-119788095D01*
X187642857Y-119502380D02*
X188261904Y-119502380D01*
X187928571Y-119883333D01*
X188071428Y-119883333D01*
X188166666Y-119930952D01*
X188214285Y-119978571D01*
X188261904Y-120073809D01*
X188261904Y-120311904D01*
X188214285Y-120407142D01*
X188166666Y-120454761D01*
X188071428Y-120502380D01*
X187785714Y-120502380D01*
X187690476Y-120454761D01*
X187642857Y-120407142D01*
X186357142Y-111502380D02*
X186023809Y-111026190D01*
X185785714Y-111502380D02*
X185785714Y-110502380D01*
X186166666Y-110502380D01*
X186261904Y-110550000D01*
X186309523Y-110597619D01*
X186357142Y-110692857D01*
X186357142Y-110835714D01*
X186309523Y-110930952D01*
X186261904Y-110978571D01*
X186166666Y-111026190D01*
X185785714Y-111026190D01*
X187309523Y-111502380D02*
X186738095Y-111502380D01*
X187023809Y-111502380D02*
X187023809Y-110502380D01*
X186928571Y-110645238D01*
X186833333Y-110740476D01*
X186738095Y-110788095D01*
X188166666Y-110835714D02*
X188166666Y-111502380D01*
X187928571Y-110454761D02*
X187690476Y-111169047D01*
X188309523Y-111169047D01*
X116357142Y-111502380D02*
X116023809Y-111026190D01*
X115785714Y-111502380D02*
X115785714Y-110502380D01*
X116166666Y-110502380D01*
X116261904Y-110550000D01*
X116309523Y-110597619D01*
X116357142Y-110692857D01*
X116357142Y-110835714D01*
X116309523Y-110930952D01*
X116261904Y-110978571D01*
X116166666Y-111026190D01*
X115785714Y-111026190D01*
X117309523Y-111502380D02*
X116738095Y-111502380D01*
X117023809Y-111502380D02*
X117023809Y-110502380D01*
X116928571Y-110645238D01*
X116833333Y-110740476D01*
X116738095Y-110788095D01*
X118214285Y-110502380D02*
X117738095Y-110502380D01*
X117690476Y-110978571D01*
X117738095Y-110930952D01*
X117833333Y-110883333D01*
X118071428Y-110883333D01*
X118166666Y-110930952D01*
X118214285Y-110978571D01*
X118261904Y-111073809D01*
X118261904Y-111311904D01*
X118214285Y-111407142D01*
X118166666Y-111454761D01*
X118071428Y-111502380D01*
X117833333Y-111502380D01*
X117738095Y-111454761D01*
X117690476Y-111407142D01*
M02*
